<svg viewBox="0 0 1200 600" xmlns="http://www.w3.org/2000/svg"><rect fill="#fff" height="596.2622" rx="10.9639" width="881.3184" x="197.9951" y="1.8687"/><path d="m1068.3494 2.3687c5.7699 0 10.464 4.6941 10.464 10.4639v574.3348c0 5.7698-4.6941 10.464-10.464 10.464h-859.3904c-5.7698 0-10.4639-4.6942-10.4639-10.464v-574.3348c0-5.7698 4.6941-10.4639 10.4639-10.4639zm0-1h-859.3904c-6.3313 0-11.4639 5.1326-11.4639 11.4639v574.3348c0 6.3313 5.1326 11.464 11.4639 11.464h859.3904c6.3314 0 11.464-5.1327 11.464-11.464v-574.3348c0-6.3313-5.1326-11.4639-11.464-11.4639z" fill="#3c4043"/><path d="m210.0106 4.625h856.9923c5.8071 0 10.5217 4.7146 10.5217 10.5217v30.1299h-878.0168v-30.1488c0-5.7967 4.7062-10.5028 10.5028-10.5028z" fill="#fff"/><circle cx="220.6803" cy="23.1005" fill="none" r="5.6368" stroke="#3c4043" stroke-width=".2939"/><circle cx="243.2273" cy="23.3647" fill="none" r="5.6368" stroke="#3c4043" stroke-width=".2939"/><circle cx="220.6803" cy="23.1005" fill="#fff" r="5.6368" stroke="#3c4043" stroke-width=".2939"/><circle cx="243.2273" cy="23.3647" fill="#fff" r="5.6368" stroke="#3c4043" stroke-width=".2939"/><path d="m199.5078 45.6475h878.0168" fill="#fff" stroke="#e2e2e2" stroke-miterlimit="10"/><path d="m229.9005 75.3599h55.9377" fill="none" stroke="#fac734" stroke-linecap="square" stroke-linejoin="round" stroke-width="14"/><path d="m329.3032 75.3599c0-6.7351 4.705-12.195 10.509-12.195h346.7036c5.8043 0 10.509 5.4599 10.509 12.195s-4.7047 12.195-10.509 12.195h-346.7036c-5.8039 0-10.509-5.4598-10.509-12.195z" fill="none" stroke="#e5e6e8" stroke-miterlimit="10"/><path d="m679.3659 77.5308 4.7626 4.6561" fill="none" stroke="#808489" stroke-miterlimit="10"/><ellipse cx="676.4997" cy="74.0735" fill="none" rx="4.421" ry="4.3151" stroke="#808489" stroke-miterlimit="10"/><path d="m223.1799 105.4432h45.8892v10.8045h-45.8892z" fill="#e5e6e8"/><path d="m280.4857 109.3141 3.5021 3.5021 3.4207-3.4207" fill="none" stroke="#e5e6e8" stroke-miterlimit="10"/><path d="m310.8694 105.4432h70.4353v10.8045h-70.4353z" fill="#e5e6e8"/><path d="m392.7213 109.3141 3.5021 3.5021 3.4207-3.4207" fill="none" stroke="#e5e6e8" stroke-miterlimit="10"/><path d="m437.0647 105.4432h56.4755v10.8045h-56.4755z" fill="#e5e6e8"/><path d="m504.9569 109.3141 3.5021 3.5021 3.4207-3.4207" fill="none" stroke="#e5e6e8" stroke-miterlimit="10"/><path d="m530.8001 105.4432h74.9757v10.8045h-74.9757z" fill="#e5e6e8"/><path d="m617.1925 109.3141 3.5021 3.5021 3.4207-3.4207" fill="none" stroke="#e5e6e8" stroke-miterlimit="10"/><circle cx="992.5317" cy="75.3599" fill="none" r="7.9598" stroke="#e5e6e8" stroke-miterlimit="10"/><circle cx="930.3448" cy="82.0201" fill="none" r="2.2201" stroke="#e5e6e8" stroke-linecap="round" stroke-linejoin="round"/><path d="m919.2444 79.8001v-11.1003c0-1.2266-.9935-2.2201-2.2201-2.2201h-1.11" fill="none" stroke="#e5e6e8" stroke-linecap="round" stroke-linejoin="round"/><path d="m930.5823 77.58 3.0926-7.7702h-14.4305v7.7702z" fill="none" stroke="#e5e6e8" stroke-linecap="round" stroke-linejoin="round"/><circle cx="919.2444" cy="82.0201" fill="none" r="2.2201" stroke="#e5e6e8" stroke-linecap="round" stroke-linejoin="round"/><path d="m919.2444 81.4651c-.3064 0-.555.2486-.555.555s.2486.555.555.555zm11.3712 1.11c.3064 0 .555-.2486.555-.555s-.2486-.555-.555-.555zm-11.3712 0h11.3712v-1.11h-11.3712z" fill="#e5e6e8"/><path d="m940.3381 72.358h27.7955v6.0039h-27.7955z" fill="#e5e6e8"/><path d="m1009.2647 72.358h53.2266v6.0039h-53.2266z" fill="#e5e6e8"/><path d="m233.5212 570.1364c3.8712 0 6.9905-3.1197 6.9905-6.9909s-3.1193-6.99-6.9905-6.99-6.9529 3.1564-6.9529 7.0276c0 3.8336 3.1193 6.9533 6.9529 6.9533z" fill="#f8b904"/><path d="m253.4519 570.1364c3.8712 0 6.9905-3.1197 6.9905-6.9909s-3.1193-6.99-6.9905-6.99-6.9529 3.1564-6.9529 7.0276c0 3.8336 3.1193 6.9533 6.9529 6.9533z" fill="#f8b904"/><path d="m273.3827 570.1364c3.8712 0 6.9905-3.1197 6.9905-6.9909s-3.1193-6.99-6.9905-6.99-6.9529 3.1564-6.9529 7.0276c0 3.8336 3.1193 6.9533 6.9529 6.9533z" fill="#f8b904"/><path d="m293.3134 570.1364c3.8712 0 6.9905-3.1197 6.9905-6.9909s-3.1193-6.99-6.9905-6.99-6.9529 3.1564-6.9529 7.0276c0 3.8336 3.1193 6.9533 6.9529 6.9533z" fill="#f8b904"/><path d="m313.2442 570.1364c3.8712 0 6.9905-3.1197 6.9905-6.9909s-3.1193-6.99-6.9905-6.99-6.9529 3.1564-6.9529 7.0276c0 3.8336 3.1193 6.9533 6.9529 6.9533z" fill="#f8b904"/><path d="m219.2793 468.8041h446.5825" fill="none" stroke="#e5e6e8" stroke-miterlimit="10"/><path d="m327.3216 563.2816h31.0727" fill="none" stroke="#4283f2" stroke-miterlimit="10"/><path d="m227.3512 512.0412h107.308" fill="none" stroke="#e5e6e8" stroke-miterlimit="10"/><path d="m227.3512 526.1919h107.308" fill="none" stroke="#e5e6e8" stroke-miterlimit="10"/><path d="m227.3512 541.6263h107.308" fill="none" stroke="#e5e6e8" stroke-miterlimit="10"/><path d="m227.3512 495.9323h125.113" fill="none" stroke="#989ea4" stroke-miterlimit="10" stroke-width="2"/><rect fill="#f1f3f4" height="435.4739" rx="3.1296" width="387.5785" x="674.9129" y="135.9834"/><rect fill="#fff" height="81.3158" rx="1.0608" width="368.3022" x="683.512" y="237.7826"/><rect fill="#fff" height="24.7883" rx="1.2608" stroke="#e2e2e2" stroke-miterlimit="10" width="99.2333" x="684.8603" y="191.9681"/><rect fill="#fff" height="24.7883" rx="1.2608" stroke="#e2e2e2" stroke-miterlimit="10" width="111.4286" x="804.4042" y="191.9681"/><path d="m697.261 211.9098c-.1635 0-.3113-.0472-.4434-.1415s-.2296-.2296-.2925-.4057c-.239-.6919-.5378-1.346-.8963-1.9624s-.8585-1.346-1.5001-2.1888c-.629-.8302-1.1447-1.6227-1.5472-2.3775s-.6038-1.6668-.6038-2.736c0-1.4718.5126-2.7203 1.5378-3.7455s2.2737-1.5378 3.7455-1.5378 2.7203.5126 3.7455 1.5378 1.5378 2.2737 1.5378 3.7455c0 1.1447-.217 2.0976-.651 2.8586s-.934 1.5127-1.5001 2.2548c-.6793.9057-1.1919 1.6573-1.5378 2.2548s-.6321 1.2296-.8585 1.8963c-.0629.1761-.1604.3113-.2925.4057s-.2799.1415-.4434.1415zm0-1.8114c.3271-.6919.6541-1.2957.9812-1.8114s.7422-1.107 1.2453-1.7737c.5535-.717 1.0126-1.3963 1.3774-2.0378s.5472-1.434.5472-2.3775c0-1.1447-.4057-2.1227-1.217-2.9341-.8114-.8114-1.7894-1.217-2.9341-1.217s-2.1227.4057-2.9341 1.217-1.217 1.7894-1.217 2.9341c0 .9434.1824 1.7359.5472 2.3775s.8239 1.3208 1.3774 2.0378c.5032.6667.9183 1.2579 1.2453 1.7737.3271.5157.6541 1.1196.9812 1.8114zm0-6.3022c.478 0 .8805-.1667 1.2076-.5s.4906-.7327.4906-1.1982c0-.478-.1635-.8805-.4906-1.2076s-.7296-.4906-1.2076-.4906c-.4654 0-.8648.1635-1.1982.4906s-.5.7296-.5 1.2076c0 .4654.1667.8648.5 1.1982s.7327.5 1.1982.5z" fill="#808489"/><path d="m820.7565 211.1858v-4.2647h1.1373v1.5732h6.6909v1.1373h-6.6909v1.5543h-1.1373zm-5.819-1.5543v-1.1373h4.6817v1.1373zm3.5445-3.1464v-1.5543h-3.5445v-1.1373h3.5445v-1.5922h1.1373v4.2837h-1.1373zm2.2745-1.5543v-1.1373h7.8281v1.1373zm3.1464-3.1275v-4.2647h1.1373v1.5543h3.5445v1.1373h-3.5445v1.5732h-1.1373zm-8.9654-1.5732v-1.1373h7.8281v1.1373z" fill="#808489"/><circle cx="764.4417" cy="166.9168" fill="#3c4043" r="1.2715"/><circle cx="764.4995" cy="162.4665" fill="#3c4043" r="1.2715"/><circle cx="764.4995" cy="157.9584" fill="#3c4043" r="1.2715"/><rect fill="#fff" height="22.4676" rx=".9349" stroke="#e2e2e2" stroke-miterlimit="10" width="62.7701" x="684.8603" y="151.4359"/><path d="m692.4673 167.7883v-1.2797h5.1186v1.2797zm0-4.4788v-1.2797h10.2373v1.2797zm0-4.4788v-1.2797h15.3559v1.2797z" fill="#808489"/><path d="m789.9087 154.0518h42.5495c4.4062 0 7.978 3.5719 7.978 7.978 0 4.4062-3.5719 7.978-7.978 7.978h-42.5495c-4.4062 0-7.978-3.5719-7.978-7.978 0-4.4062 3.5719-7.978 7.978-7.978z" fill="#fff" stroke="#3c4043" stroke-linecap="square" stroke-linejoin="round" stroke-width=".5501"/><path d="m853.733 154.0518h53.1869c4.4062 0 7.978 3.5719 7.978 7.978 0 4.4062-3.5719 7.978-7.978 7.978h-53.1869c-4.4062 0-7.978-3.5719-7.978-7.978 0-4.4062 3.5719-7.978 7.978-7.978z" fill="#fff" stroke="#bdc1c6" stroke-width=".5501"/><path d="m928.1946 154.0518h53.1869c4.4062 0 7.978 3.5719 7.978 7.978 0 4.4062-3.5719 7.978-7.978 7.978h-53.1869c-4.4062 0-7.978-3.5719-7.978-7.978 0-4.4062 3.5719-7.978 7.978-7.978z" fill="#fff" stroke="#bdc1c6" stroke-width=".5501"/><path d="m792.568 162.0299h37.2308" fill="none" stroke="#3c4043" stroke-linecap="square" stroke-linejoin="round" stroke-width=".5501"/><path d="m856.3923 162.0299h47.8682" fill="none" stroke="#bdc1c6" stroke-linecap="round" stroke-linejoin="round" stroke-width=".5501"/><path d="m930.854 162.0299h47.8682" fill="none" stroke="#bdc1c6" stroke-linecap="round" stroke-linejoin="round" stroke-width=".5501"/><rect fill="#e4f2e8" height="20.2208" rx="1.1443" width="67.4693" x="694.3444" y="291.7214"/><path d="m725.6827 301.8318h28.0349" fill="none" stroke="#34a653" stroke-miterlimit="10" stroke-width="1.0652"/><path d="m702.6135 307.0193v-7.6816c-.1457-.0208-.2862-.1249-.4216-.3123s-.203-.3903-.203-.6089v-1.9829c0-.2394.0937-.4554.281-.6479s.4059-.2888.6558-.2888h10.6169c.2394 0 .4554.0963.6479.2888s.2888.4085.2888.6479v1.9829c0 .2186-.0677.4216-.203.6089s-.2758.2914-.4216.3123v7.6816c0 .2394-.0963.4606-.2888.6636s-.4085.3045-.6479.3045h-9.3679c-.2498 0-.4684-.1015-.6558-.3045s-.281-.4242-.281-.6636zm.9368-7.666v7.6973h9.3679v-7.6973zm9.9924-.9368v-1.9829h-10.6169v1.9829zm-7.182 4.2155h3.7471v-.9368h-3.7471zm-2.8104 4.4185v-7.6973z" fill="#34a653"/><rect fill="#e4f2e8" height="20.2208" rx="1.1443" width="78.0477" x="769.8727" y="291.7214"/><path d="m802.484 301.8318h38.9637" fill="none" stroke="#34a653" stroke-miterlimit="10" stroke-width="1.0652"/><path d="m779.926 307.3359c-.5733 0-1.0613-.2009-1.464-.6026s-.604-.8895-.604-1.4634h-1.1555v-8.0713c0-.2801.105-.5252.3151-.7353s.4552-.3151.7353-.3151h10.1373v2.9239h1.8384l2.3811 3.169v3.0289h-1.2431c0 .5739-.2007 1.0617-.602 1.4634s-.8886.6026-1.4619.6026-1.0613-.2009-1.464-.6026-.604-.8895-.604-1.4634h-4.7447c0 .5719-.2007 1.0592-.602 1.4619s-.8886.604-1.4619.604zm-.0021-1.0505c.2801 0 .5194-.0992.7178-.2976s.2976-.4377.2976-.7178-.0992-.5194-.2976-.7178-.4377-.2976-.7178-.2976-.5194.0992-.7178.2976-.2976.4377-.2976.7178.0992.5194.2976.7178.4377.2976.7178.2976zm-2.171-2.066h.3852c.1984-.3151.4496-.5661.7536-.7529s.6424-.2801 1.0155-.2801.7142.0963 1.0235.2889.5632.4406.7616.7441h5.1474v-7.0208h-9.0868zm11.0477 2.066c.2801 0 .5194-.0992.7178-.2976s.2976-.4377.2976-.7178-.0992-.5194-.2976-.7178-.4377-.2976-.7178-.2976-.5194.0992-.7178.2976-.2976.4377-.2976.7178.0992.5194.2976.7178.4377.2976.7178.2976zm-.9104-3.5717h3.2565l-1.9434-2.5912h-1.3131z" fill="#34a653"/><path d="m899.9402 303.3532h36.7929" fill="none" stroke="#3d4043" stroke-linecap="square" stroke-miterlimit="10" stroke-width="1.0652"/><path d="m890.4648 307.2402c-.665.6406-1.4961 1.0352-2.4941 1.1826v1.626h-1.6436v-1.6074c-.9492-.1357-1.7803-.5049-2.4941-1.1084-.7148-.6035-1.2197-1.4229-1.5156-2.457l2.125-.8682c.1357.5049.3691.9482.7021 1.3301.332.3818.7266.6465 1.1826.7939v-3.5283l-.167-.0557c-2.2168-.8623-3.3252-2.1177-3.3252-3.7686 0-.8989.3174-1.6719.9512-2.3184.6348-.6465 1.4814-1.0312 2.541-1.1548v-1.5884h1.6436v1.6255c.8994.1479 1.6133.4648 2.1436.9517.5293.4863.8926 1.0312 1.0898 1.6348l-2.0693.9238c-.0859-.271-.2285-.5176-.4248-.7393-.1973-.2217-.4434-.3877-.7393-.4985v3.3066c1.1826.4927 2.0596 1.0161 2.6328 1.5698.5723.5547.8594 1.2939.8594 2.2168 0 1.0479-.333 1.8916-.998 2.5312zm-5.0713-7.6943c.1914.2158.502.4346.9336.6562v-2.6973c-.3701.0986-.666.2583-.8877.48s-.332.4868-.332.7944c0 .2959.0947.5513.2861.7666zm3.3994 6.041c.2031-.2402.3047-.5264.3047-.8594 0-.332-.083-.6025-.249-.8125-.167-.209-.459-.4189-.8779-.6279v2.8447c.3447-.123.6191-.3047.8223-.5449z" fill="#3d4043"/><path d="m893.8369 307.7305c-.3145-.3145-.4717-.6934-.4717-1.1367s.1572-.8184.4717-1.127c.3135-.3076.6924-.4609 1.1357-.4609s.8223.1533 1.1367.4609c.3135.3086.4707.6836.4707 1.127s-.1572.8223-.4707 1.1367c-.3145.3135-.6934.4707-1.1367.4707s-.8223-.1572-1.1357-.4707z" fill="#3d4043"/><path d="m835.3448 257.4704h31.3883" fill="none" stroke="#fac734" stroke-miterlimit="10" stroke-width="1.0652"/><path d="m810.8639 265.3635v-14.2702c0-.3085.1157-.5785.3471-.8099s.5014-.3471.8099-.3471h13.1131c.3085 0 .5785.1157.8099.3471s.3471.5014.3471.8099v10.0277c0 .3085-.1157.5785-.3471.8099s-.5014.3471-.8099.3471h-11.1847l-3.0854 3.0854zm1.157-4.2425h13.1131v-10.0277h-13.1131zm0 0v-10.0277zm4.3003-1.7356 2.2562-1.3692 2.2562 1.3692-.5978-2.5648 2.0055-1.7356-2.6419-.2121-1.0221-2.4298-1.0221 2.4298-2.6419.2121 2.0055 1.7356-.5978 2.5648z" fill="#fac734"/><rect fill="#fff" height="283.6826" rx="2.6157" width="435.9697" x="224.29" y="136.3584"/><path d="m657.6437 136.7335c1.2357 0 2.241 1.0053 2.241 2.241v278.4508c0 1.2357-1.0053 2.241-2.241 2.241h-430.7378c-1.2357 0-2.241-1.0053-2.241-2.241v-278.4509c0-1.2357 1.0053-2.241 2.241-2.241h430.7378m0-.75h-430.7378c-1.6519 0-2.991 1.3391-2.991 2.991v278.4508c0 1.6519 1.3391 2.991 2.991 2.991h430.7378c1.6519 0 2.991-1.3391 2.991-2.991v-278.4508c0-1.6518-1.3391-2.991-2.991-2.991z" fill="#3c4043"/><path d="m359.6175 311.0748s-59.0541 17.5209-67.5421 24.6031c-8.488 7.0797-28.2779 18.313 18.3638 32.4341 46.68 14.1211 76.3457 19.7365 132.9015 16.9274 56.5558-2.8064 93.3217-14.1186 117.3568-35.2404l24.0327-21.1626-225.1128-17.5616z" fill="#fff" stroke="#3c4043" stroke-miterlimit="10" stroke-width=".5799"/><path d="m604.5609 320.1332v-66.2534s-4.2427-60.638-67.8603-71.9095c-63.6152-11.274-114.5377-14.1211-142.8156 4.1918-28.2779 18.313-33.9492 31.0104-33.9492 78.9892v54.9819s-7.0619 12.695 43.8251 21.1601c50.9225 8.465 101.807 9.8886 131.5137 5.6561 29.7039-4.2325 53.7392-7.0797 69.2864-26.8162z" fill="#e84335"/><path d="m492.2821 175.3644s68.4537 26.3424 42.9924 171.585" fill="none" stroke="#3c4043" stroke-miterlimit="10" stroke-width=".5799"/><path d="m485.778 177.6971c7.8182 0 14.1593-1.5764 14.1593-3.5195s-6.3411-3.5195-14.1593-3.5195-14.1593 1.5764-14.1593 3.5195 6.3386 3.5195 14.1593 3.5195z" fill="#fff" stroke="#3c4043" stroke-miterlimit="10" stroke-width=".5799"/><rect fill="#bbbfc4" height="4.9818" rx="1.1359" transform="matrix(0 1 -1 0 1285.4926 -834.5083)" width="52.7984" x="1033.6012" y="223.0012"/><path d="m543.8511 436.9941h40.6592c.5118 0 .9272.4155.9272.9272v16.6699c0 .5118-.4155.9272-.9272.9272h-40.6597c-.5118 0-.9272-.4155-.9272-.9272v-16.6694c0-.512.4157-.9277.9277-.9277z" fill="#e84335"/><path d="m584.5102 437.2445c.3734 0 .6772.3038.6772.6772v16.6695c0 .3734-.3038.6772-.6772.6772h-40.6598c-.3734 0-.6772-.3038-.6772-.6772v-16.6695c0-.3734.3038-.6772.6772-.6772zm0-.5h-40.6598c-.6475 0-1.1772.5298-1.1772 1.1772v16.6695c0 .6475.5298 1.1772 1.1772 1.1772h40.6598c.6475 0 1.1772-.5297 1.1772-1.1772v-16.6695c0-.6475-.5297-1.1772-1.1772-1.1772z" fill="#3c4043"/><rect fill="#4283f2" height="13.7043" opacity=".75" rx="1.1772" width="30.9863" x="591.9018" y="439.4043"/><rect fill="#f9ba04" height="13.7043" opacity=".75" rx="1.1772" width="30.9863" x="628.2546" y="439.4043"/><rect fill="#fff" height="81.3158" rx="1.0608" width="368.3022" x="683.512" y="332.073"/><path d="m835.3448 349.0253h31.3883" fill="none" stroke="#fac734" stroke-miterlimit="10" stroke-width="1.0652"/><path d="m810.8639 356.9184v-14.2702c0-.3085.1157-.5785.3471-.8099s.5014-.3471.8099-.3471h13.1131c.3085 0 .5785.1157.8099.3471s.3471.5014.3471.8099v10.0277c0 .3085-.1157.5785-.3471.8099s-.5014.3471-.8099.3471h-11.1847l-3.0854 3.0854zm1.157-4.2425h13.1131v-10.0277h-13.1131zm0 0v-10.0277zm4.3003-1.7356 2.2562-1.3692 2.2562 1.3692-.5978-2.5648 2.0055-1.7356-2.6419-.2121-1.0221-2.4298-1.0221 2.4298-2.6419.2121 2.0055 1.7356-.5978 2.5648z" fill="#fac734"/><rect fill="#fff" height="81.3158" rx="1.0608" width="368.3022" x="683.512" y="427.0913"/><path d="m835.3448 445.2661h31.3883" fill="none" stroke="#fac734" stroke-miterlimit="10" stroke-width="1.0652"/><path d="m810.8639 453.1592v-14.2702c0-.3085.1157-.5785.3471-.8099s.5014-.3471.8099-.3471h13.1131c.3085 0 .5785.1157.8099.3471s.3471.5014.3471.8099v10.0277c0 .3085-.1157.5785-.3471.8099s-.5014.3471-.8099.3471h-11.1847l-3.0854 3.0854zm1.157-4.2425h13.1131v-10.0277h-13.1131zm0 0v-10.0277zm4.3003-1.7356 2.2562-1.3692 2.2562 1.3692-.5978-2.5648 2.0055-1.7356-2.6419-.2121-1.0221-2.4298-1.0221 2.4298-2.6419.2121 2.0055 1.7356-.5978 2.5648z" fill="#fac734"/><rect fill="#e4f2e8" height="20.2208" rx="1.1443" width="67.4693" x="694.3444" y="383.1324"/><path d="m725.6827 393.2428h28.0349" fill="none" stroke="#34a653" stroke-miterlimit="10" stroke-width="1.0652"/><path d="m702.6135 398.4303v-7.6816c-.1457-.0208-.2862-.1249-.4216-.3123s-.203-.3903-.203-.6089v-1.9829c0-.2394.0937-.4554.281-.6479s.4059-.2888.6558-.2888h10.6169c.2394 0 .4554.0963.6479.2888s.2888.4085.2888.6479v1.9829c0 .2186-.0677.4216-.203.6089s-.2758.2914-.4216.3123v7.6816c0 .2394-.0963.4606-.2888.6636s-.4085.3045-.6479.3045h-9.3679c-.2498 0-.4684-.1015-.6558-.3045s-.281-.4242-.281-.6636zm.9368-7.666v7.6973h9.3679v-7.6973zm9.9924-.9368v-1.9829h-10.6169v1.9829zm-7.182 4.2155h3.7471v-.9368h-3.7471zm-2.8104 4.4185v-7.6973z" fill="#34a653"/><rect fill="#e4f2e8" height="20.2208" rx="1.1443" width="78.0477" x="769.8727" y="383.1324"/><path d="m802.484 393.2428h38.9637" fill="none" stroke="#34a653" stroke-miterlimit="10" stroke-width="1.0652"/><path d="m779.926 398.7469c-.5733 0-1.0613-.2009-1.464-.6026s-.604-.8895-.604-1.4634h-1.1555v-8.0713c0-.2801.105-.5252.3151-.7353s.4552-.3151.7353-.3151h10.1373v2.9239h1.8384l2.3811 3.169v3.0289h-1.2431c0 .5739-.2007 1.0617-.602 1.4634s-.8886.6026-1.4619.6026-1.0613-.2009-1.464-.6026-.604-.8895-.604-1.4634h-4.7447c0 .5719-.2007 1.0592-.602 1.4619s-.8886.604-1.4619.604zm-.0021-1.0505c.2801 0 .5194-.0992.7178-.2976s.2976-.4377.2976-.7178-.0992-.5194-.2976-.7178-.4377-.2976-.7178-.2976-.5194.0992-.7178.2976-.2976.4377-.2976.7178.0992.5194.2976.7178.4377.2976.7178.2976zm-2.171-2.066h.3852c.1984-.3151.4496-.5661.7536-.7529s.6424-.2801 1.0155-.2801.7142.0963 1.0235.2889.5632.4406.7616.7441h5.1474v-7.0208h-9.0868zm11.0477 2.066c.2801 0 .5194-.0992.7178-.2976s.2976-.4377.2976-.7178-.0992-.5194-.2976-.7178-.4377-.2976-.7178-.2976-.5194.0992-.7178.2976-.2976.4377-.2976.7178.0992.5194.2976.7178.4377.2976.7178.2976zm-.9104-3.5717h3.2565l-1.9434-2.5912h-1.3131z" fill="#34a653"/><path d="m899.9402 395.7642h36.7929" fill="none" stroke="#3d4043" stroke-linecap="square" stroke-miterlimit="10" stroke-width="1.0652"/><path d="m890.4648 399.6514c-.665.6406-1.4961 1.0352-2.4941 1.1826v1.626h-1.6436v-1.6074c-.9492-.1357-1.7803-.5049-2.4941-1.1084-.7148-.6035-1.2197-1.4229-1.5156-2.457l2.125-.8682c.1357.5049.3691.9482.7021 1.3301.332.3818.7266.6465 1.1826.7939v-3.5283l-.167-.0557c-2.2168-.8613-3.3252-2.1182-3.3252-3.7686 0-.8984.3174-1.6719.9512-2.3184.6348-.6465 1.4814-1.0312 2.541-1.1543v-1.5889h1.6436v1.626c.8994.1475 1.6133.4648 2.1436.9512.5293.4863.8926 1.0312 1.0898 1.6348l-2.0693.9238c-.0859-.2705-.2285-.5176-.4248-.7393-.1973-.2217-.4434-.3877-.7393-.499v3.3076c1.1826.4922 2.0596 1.0156 2.6328 1.5703.5723.5537.8594 1.293.8594 2.2168 0 1.0469-.333 1.8906-.998 2.5303zm-5.0713-7.6943c.1914.2158.502.4346.9336.6562v-2.6973c-.3701.0986-.666.2588-.8877.4805s-.332.4863-.332.7939c0 .2959.0947.5518.2861.7666zm3.3994 6.041c.2031-.2402.3047-.5264.3047-.8584 0-.333-.083-.6035-.249-.8135-.167-.209-.459-.418-.8779-.6279v2.8447c.3447-.123.6191-.3047.8223-.5449z" fill="#3d4043"/><path d="m893.8369 400.1416c-.3145-.3145-.4717-.6934-.4717-1.1367s.1572-.8184.4717-1.127c.3135-.3076.6924-.4619 1.1357-.4619s.8223.1543 1.1367.4619c.3135.3086.4707.6836.4707 1.127s-.1572.8223-.4707 1.1367c-.3145.3135-.6934.4707-1.1367.4707s-.8223-.1572-1.1357-.4707z" fill="#3d4043"/><rect fill="#e4f2e8" height="20.2208" rx="1.1443" width="67.4693" x="694.3444" y="479.6664"/><path d="m725.6827 489.7768h28.0349" fill="none" stroke="#34a653" stroke-miterlimit="10" stroke-width="1.0652"/><path d="m702.6135 494.9643v-7.6816c-.1457-.0208-.2862-.1249-.4216-.3123s-.203-.3903-.203-.6089v-1.9829c0-.2394.0937-.4554.281-.6479s.4059-.2888.6558-.2888h10.6169c.2394 0 .4554.0963.6479.2888s.2888.4085.2888.6479v1.9829c0 .2186-.0677.4216-.203.6089s-.2758.2914-.4216.3123v7.6816c0 .2394-.0963.4606-.2888.6636s-.4085.3045-.6479.3045h-9.3679c-.2498 0-.4684-.1015-.6558-.3045s-.281-.4242-.281-.6636zm.9368-7.666v7.6973h9.3679v-7.6973zm9.9924-.9368v-1.9829h-10.6169v1.9829zm-7.182 4.2155h3.7471v-.9368h-3.7471zm-2.8104 4.4185v-7.6973z" fill="#34a653"/><rect fill="#e4f2e8" height="20.2208" rx="1.1443" width="78.0477" x="769.8727" y="479.6664"/><path d="m802.484 489.7768h38.9637" fill="none" stroke="#34a653" stroke-miterlimit="10" stroke-width="1.0652"/><path d="m779.926 495.2809c-.5733 0-1.0613-.2009-1.464-.6026s-.604-.8895-.604-1.4634h-1.1555v-8.0713c0-.2801.105-.5252.3151-.7353s.4552-.3151.7353-.3151h10.1373v2.9239h1.8384l2.3811 3.169v3.0289h-1.2431c0 .5739-.2007 1.0617-.602 1.4634s-.8886.6026-1.4619.6026-1.0613-.2009-1.464-.6026-.604-.8895-.604-1.4634h-4.7447c0 .5719-.2007 1.0592-.602 1.4619s-.8886.604-1.4619.604zm-.0021-1.0505c.2801 0 .5194-.0992.7178-.2976s.2976-.4377.2976-.7178-.0992-.5194-.2976-.7178-.4377-.2976-.7178-.2976-.5194.0992-.7178.2976-.2976.4377-.2976.7178.0992.5194.2976.7178.4377.2976.7178.2976zm-2.171-2.066h.3852c.1984-.3151.4496-.5661.7536-.7529s.6424-.2801 1.0155-.2801.7142.0963 1.0235.2889.5632.4406.7616.7441h5.1474v-7.0208h-9.0868zm11.0477 2.066c.2801 0 .5194-.0992.7178-.2976s.2976-.4377.2976-.7178-.0992-.5194-.2976-.7178-.4377-.2976-.7178-.2976-.5194.0992-.7178.2976-.2976.4377-.2976.7178.0992.5194.2976.7178.4377.2976.7178.2976zm-.9104-3.5717h3.2565l-1.9434-2.5912h-1.3131z" fill="#34a653"/><path d="m899.9402 491.2982h36.7929" fill="none" stroke="#3d4043" stroke-linecap="square" stroke-miterlimit="10" stroke-width="1.0652"/><path d="m890.4648 495.1855c-.665.6406-1.4961 1.0352-2.4941 1.1826v1.626h-1.6436v-1.6074c-.9492-.1357-1.7803-.5049-2.4941-1.1084-.7148-.6035-1.2197-1.4229-1.5156-2.457l2.125-.8682c.1357.5049.3691.9482.7021 1.3301.332.3818.7266.6465 1.1826.7939v-3.5283l-.167-.0557c-2.2168-.8613-3.3252-2.1182-3.3252-3.7686 0-.8984.3174-1.6719.9512-2.3184.6348-.6465 1.4814-1.0312 2.541-1.1543v-1.5889h1.6436v1.626c.8994.1475 1.6133.4648 2.1436.9512.5293.4863.8926 1.0312 1.0898 1.6348l-2.0693.9238c-.0859-.2705-.2285-.5176-.4248-.7393-.1973-.2217-.4434-.3877-.7393-.499v3.3076c1.1826.4922 2.0596 1.0156 2.6328 1.5703.5723.5537.8594 1.293.8594 2.2168 0 1.0469-.333 1.8906-.998 2.5303zm-5.0713-7.6943c.1914.2158.502.4346.9336.6562v-2.6973c-.3701.0986-.666.2588-.8877.4805s-.332.4863-.332.7939c0 .2959.0947.5518.2861.7666zm3.3994 6.041c.2031-.2402.3047-.5264.3047-.8584 0-.333-.083-.6035-.249-.8135-.167-.209-.459-.418-.8779-.6279v2.8447c.3447-.123.6191-.3047.8223-.5449z" fill="#3d4043"/><path d="m893.8369 495.6758c-.3145-.3145-.4717-.6934-.4717-1.1367s.1572-.8184.4717-1.127c.3135-.3076.6924-.4619 1.1357-.4619s.8223.1543 1.1367.4619c.3135.3086.4707.6836.4707 1.127s-.1572.8223-.4707 1.1367c-.3145.3135-.6934.4707-1.1367.4707s-.8223-.1572-1.1357-.4707z" fill="#3d4043"/><path d="m561.2734 452.7062-5.5595-5.5595 1.5261-1.5261 4.0333 4.0333 9.8472-9.8472 1.5261 1.5261-11.3733 11.3733z" fill="#fff"/><rect fill="#4282f1" height="24.1979" rx="1.1862" width="65.8914" x="972.4949" y="282.5946"/><path d="m980.853 294.6956h50.8981" fill="none" stroke="#fff" stroke-linecap="square" stroke-linejoin="round" stroke-width=".7833"/><rect fill="#4282f1" height="24.1979" rx="1.1862" width="65.8914" x="972.4949" y="360.9959"/><path d="m980.853 373.0969h50.8981" fill="none" stroke="#fff" stroke-linecap="square" stroke-linejoin="round" stroke-width=".7833"/><path d="m973.6816 250.5884h63.519c.3786 0 .686.3074.686.686v21.8252c0 .3789-.3076.6865-.6865.6865h-63.519c-.3786 0-.686-.3074-.686-.686v-21.8252c0-.3789.3076-.6865.6865-.6865z" fill="#fff"/><path d="m1037.2001 251.0884c.1027 0 .1863.0835.1863.1862v21.8255c0 .1027-.0836.1862-.1863.1862h-63.5189c-.1027 0-.1862-.0836-.1862-.1862v-21.8255c0-.1027.0836-.1862.1862-.1862zm0-1h-63.5189c-.6552 0-1.1862.5311-1.1862 1.1862v21.8255c0 .6552.5311 1.1862 1.1862 1.1862h63.5189c.6552 0 1.1863-.5311 1.1863-1.1862v-21.8255c0-.6551-.5311-1.1862-1.1863-1.1862z" fill="#e1e1e1"/><path d="m980.853 262.1894h50.8981" fill="none" stroke="#bdc1c6" stroke-linecap="square" stroke-linejoin="round"/><rect fill="#4282f1" height="24.1979" rx="1.1862" width="65.8914" x="972.4949" y="471.9034"/><path d="m980.853 484.0044h50.8981" fill="none" stroke="#fff" stroke-linecap="square" stroke-linejoin="round" stroke-width=".7833"/><path d="m973.6816 439.8975h63.5186c.3789 0 .6865.3076.6865.6865v21.8242c0 .3789-.3076.6865-.6865.6865h-63.5195c-.3784 0-.6855-.3072-.6855-.6855v-21.8252c0-.3789.3076-.6865.6865-.6865z" fill="#fff"/><path d="m1037.2001 440.3972c.1027 0 .1863.0835.1863.1862v21.8255c0 .1027-.0836.1862-.1863.1862h-63.5189c-.1027 0-.1862-.0835-.1862-.1862v-21.8255c0-.1027.0836-.1862.1862-.1862zm0-1h-63.5189c-.6552 0-1.1862.5311-1.1862 1.1862v21.8255c0 .6551.5311 1.1862 1.1862 1.1862h63.5189c.6552 0 1.1863-.5311 1.1863-1.1862v-21.8255c0-.6551-.5311-1.1862-1.1863-1.1862z" fill="#e1e1e1"/><path d="m980.853 451.4982h50.8981" fill="none" stroke="#bdc1c6" stroke-linecap="square" stroke-linejoin="round"/><rect fill="#202124" height="596.8779" opacity=".12" rx="10.8531" width="883.238" x="196.8972" y="2.2701"/><rect fill="#4283f2" height="130.295" rx="13.8001" width="297.4533" x="759.5705" y="71.202"/><path d="m1045.2534 92.8579c9.4958 0 17.1971-7.7013 17.1971-17.1971s-7.7013-17.197-17.1971-17.197-17.1971 7.7013-17.1971 17.197 7.7013 17.1971 17.1971 17.1971z" fill="#ea4335" stroke="#fff" stroke-miterlimit="10"/><path d="m1039.8698 81.7957 10.852-10.9593" fill="none" stroke="#fff" stroke-miterlimit="10" stroke-width="2"/><path d="m1050.7725 81.7392-10.9479-10.8462" fill="none" stroke="#fff" stroke-miterlimit="10" stroke-width="2"/><path d="m785.5606 142.015c-1.1284 0-2.1157-.4231-2.962-1.2694s-1.2694-1.8336-1.2694-2.962v-36.6723c0-1.1284.4231-2.1157 1.2694-2.962s1.8336-1.2694 2.962-1.2694h47.956c1.1284 0 2.1157.4231 2.962 1.2694s1.2694 1.8336 1.2694 2.962v36.6723c0 1.1284-.4231 2.1157-1.2694 2.962s-1.8336 1.2694-2.962 1.2694zm23.978-21.2981-23.978-15.7268v32.7935h47.956v-32.7935zm0-4.2314 23.6959-15.3741h-47.3213zm-23.978-11.4953v-3.8788 36.6723z" fill="#fff"/><rect fill="#fff" height="6.7402" rx="2.5014" width="160.5308" x="855.0641" y="101.4549"/><rect fill="#fff" height="6.7402" rx="2.5014" width="93.9862" x="855.0641" y="116.0774"/><rect fill="#fff" height="6.7402" rx="2.5014" width="72.2082" x="855.0641" y="130.6998"/><path d="m184.3422 363.4192c35.4103 0 64.1155-28.7125 64.1155-64.1151s-28.7052-64.1156-64.1155-64.1156-64.1155 28.7125-64.1155 64.1156 28.7051 64.1151 64.1155 64.1151z" fill="#34a853" stroke="#34a853" stroke-linecap="round" stroke-linejoin="round"/><path d="m156.8236 303.4545 20.8285 16.7919 30.3615-41.8657" fill="none" stroke="#fff" stroke-linecap="round" stroke-linejoin="round" stroke-width="9"/><g fill="#fff"><path d="m782.668 160.2974c-.2793-.2793-.4189-.6162-.4189-1.0103s.1396-.731.4189-1.0098c.2783-.2793.6152-.4189 1.0098-.4189.3936 0 .7305.1396 1.0098.4189.2793.2788.4189.6157.4189 1.0098s-.1396.731-.4189 1.0103c-.2793.2788-.6162.4185-1.0098.4185-.3945 0-.7314-.1396-1.0098-.4185zm-.0908 6.3633.1973-4.5815h1.8066l.1963 4.5815v3.3833h-2.2002z"/><path d="m787.3721 154.7383h4.2861c.7666 0 1.4482.1587 2.0449.4761.5967.3179 1.0586.7583 1.3877 1.3223.3281.564.4922 1.2017.4922 1.9131 0 .7554-.2383 1.4263-.7139 2.0117-.4766.5859-1.0762 1.0098-1.7988 1.2725l-.0166.1152 3.1533 4.5161v.1313h-2.5449l-3.0381-4.4175h-1.0352v4.4175h-2.2168v-11.7583zm4.2695 5.3042c.5039 0 .9141-.1528 1.2314-.4595.3184-.3066.4766-.6953.4766-1.166 0-.4492-.1504-.832-.4512-1.1499-.3018-.3174-.709-.4761-1.2236-.4761h-2.0859v3.2515z"/><path d="m799 166.1846c-.668-.3833-1.1914-.9116-1.5684-1.585-.3779-.6733-.5674-1.4312-.5674-2.2744 0-.7988.1865-1.5405.5586-2.2251.3721-.6841.8867-1.229 1.5439-1.6343.6572-.4048 1.3906-.6074 2.2002-.6074.8652 0 1.6094.1865 2.2334.5586s1.0977.8813 1.4209 1.5269c.3232.6465.4844 1.3633.4844 2.1514 0 .252-.0166.4927-.0488.7227h-6.29c.1094.668.375 1.1743.7969 1.519.4209.3452.9277.5176 1.5186.5176.4932 0 .917-.1069 1.2725-.3203s.6377-.501.8457-.8623l1.7412.854c-.8545 1.4893-2.1514 2.2334-3.8926 2.2334-.832 0-1.582-.1914-2.249-.5747zm4.2363-4.894c-.0215-.2627-.1172-.5225-.2871-.7798s-.4053-.4707-.7061-.6406c-.3018-.1694-.6543-.2544-1.0596-.2544-.5146 0-.9551.1504-1.3223.4517-.3662.3013-.6318.709-.7959 1.2231h4.1709z"/><path d="m808.2617 169.5923c-.7012-.4766-1.1719-1.0483-1.4131-1.7163l2.0205-.8208c.1748.4155.4434.7441.8047.9849s.7715.3613 1.2314.3613c.6787 0 1.2178-.208 1.6182-.624.3994-.416.5986-1.0073.5986-1.7734v-.6567h-.1309c-.2627.3721-.6074.6567-1.0352.854-.4268.1968-.9141.2954-1.4609.2954-.6904 0-1.333-.1777-1.9297-.5337-.5967-.3555-1.0762-.8594-1.4375-1.5107s-.542-1.4097-.542-2.2744.1807-1.623.542-2.2749c.3613-.6509.8408-1.1548 1.4375-1.5107.5967-.3555 1.2393-.5337 1.9297-.5337.5469 0 1.0342.0986 1.4609.2954.4277.1973.7725.4819 1.0352.854h.1309v-.8867h2.0693v7.8008c0 .8975-.1748 1.6748-.5254 2.332-.3506.6567-.8486 1.1631-1.4941 1.519-.6465.3555-1.4014.5337-2.2666.5337-1.0615 0-1.9434-.2383-2.6436-.7144zm4.2207-5.6821c.4268-.4214.6396-.999.6396-1.7324 0-.7559-.2109-1.3389-.6318-1.749-.4219-.4106-.9395-.6162-1.5518-.6162-.6133 0-1.1338.2085-1.5605.624-.4268.4165-.6406.9966-.6406 1.7412s.2139 1.3247.6406 1.7407.9473.624 1.5605.624c.6016 0 1.1162-.2109 1.5439-.6323z"/><path d="m817.4248 158.1211h2.1514v8.3755h-2.1514zm.9033-3.8428h2.5127l-1.4785 2.2334h-1.7246z"/><path d="m822.5244 166.1353c-.6299-.416-1.0703-.958-1.3223-1.626l1.9219-.8374c.1748.394.4238.6924.7471.895.3223.2026.6973.3037 1.125.3037.3936 0 .7227-.0625.9854-.1885s.3936-.3311.3936-.6162c0-.2734-.1201-.4785-.3613-.6157-.2402-.1367-.6016-.2598-1.084-.3696l-.9854-.2134c-.6787-.1641-1.2422-.4624-1.6914-.895-.4492-.4321-.6729-.9712-.6729-1.6177 0-.4814.1445-.9141.4346-1.2974.29-.3828.6846-.6787 1.1826-.8867s1.0488-.312 1.6504-.312c1.7305 0 2.8848.6074 3.4658 1.8228l-1.8398.8047c-.3281-.5908-.8535-.8867-1.5762-.8867-.373 0-.668.0684-.8867.2056-.2197.1367-.3291.3091-.3291.5171 0 .394.3721.6899 1.1172.8867l1.2314.2959c.832.208 1.459.5254 1.8809.9521.4209.4272.6318.9526.6318 1.5767 0 .5366-.1562 1.0098-.4678 1.4204-.3125.4106-.7393.731-1.2812.9609s-1.1416.3447-1.7979.3447c-1.0186 0-1.8428-.208-2.4717-.624z"/><path d="m832.5166 166.5669c-.3506-.1284-.6348-.3042-.8535-.5273-.5146-.5024-.7715-1.2168-.7715-2.144v-3.9351h-1.4619v-1.8394h1.4619v-2.3647h2.1504v2.3647h2.0537v1.8394h-2.0537v3.563c0 .4395.0938.7544.2793.9458.1533.1802.416.27.7891.27.207 0 .3799-.0269.5166-.082.1367-.0547.3145-.1479.5342-.2793v2.1021c-.4707.186-.9688.2793-1.4941.2793-.417 0-.7998-.0645-1.1504-.1924z"/><path d="m836.8848 158.1211h2.0205v1.1167h.1309c.208-.394.5312-.7227.9688-.9854.4385-.2627.9199-.394 1.4453-.394.3838 0 .7334.0659 1.0508.1973v2.1348c-.2949-.1094-.5439-.189-.7471-.2383-.2021-.0493-.418-.0737-.6484-.0737-.6348 0-1.1387.2305-1.5107.6914s-.5586 1.0425-.5586 1.7451v4.1816h-2.1514v-8.3755z"/><path d="m844.0127 165.9795c-.5693-.52-.8535-1.2017-.8535-2.0449 0-.5581.1475-1.0508.4434-1.478.2949-.4268.7002-.7554 1.2148-.9854s1.084-.3447 1.708-.3447c.8643 0 1.6035.126 2.2168.3779v-.3613c0-.46-.1719-.832-.5176-1.1167-.3447-.2847-.8066-.4272-1.3877-.4272-.3936 0-.7744.0903-1.1406.271-.3672.1807-.6709.4189-.9121.7144l-1.3789-1.084c.4043-.5254.9141-.9302 1.5273-1.2148.6123-.2847 1.2803-.4272 2.0029-.4272 1.2812 0 2.2559.2954 2.9238.8867.667.5913 1.002 1.4565 1.002 2.5947v5.1567h-2.1191v-.854h-.1309c-.252.3286-.583.5967-.9941.8047-.4102.208-.8838.312-1.4199.312-.8867 0-1.6152-.2603-2.1846-.7798zm4.1797-1.4946c.3662-.3994.5498-.8677.5498-1.4043-.5586-.2627-1.1436-.394-1.7568-.394-1.1172 0-1.6748.4165-1.6748 1.248 0 .3398.1201.6157.3604.8296.2412.2134.5859.3203 1.0352.3203.624 0 1.1191-.1997 1.4863-.5996z"/><path d="m855.1787 166.5669c-.3506-.1284-.6348-.3042-.8535-.5273-.5146-.5024-.7715-1.2168-.7715-2.144v-3.9351h-1.4619v-1.8394h1.4619v-2.3647h2.1504v2.3647h2.0537v1.8394h-2.0537v3.563c0 .4395.0938.7544.2793.9458.1533.1802.416.27.7891.27.207 0 .3799-.0269.5166-.082.1367-.0547.3145-.1479.5342-.2793v2.1021c-.4707.186-.9688.2793-1.4941.2793-.417 0-.7998-.0645-1.1504-.1924z"/><path d="m860.9277 166.1846c-.668-.3833-1.1914-.9116-1.5684-1.585-.3779-.6733-.5674-1.4312-.5674-2.2744 0-.7988.1865-1.5405.5586-2.2251.3721-.6841.8867-1.229 1.5439-1.6343.6572-.4048 1.3906-.6074 2.2002-.6074.8652 0 1.6094.1865 2.2334.5586s1.0977.8813 1.4209 1.5269c.3232.6465.4844 1.3633.4844 2.1514 0 .252-.0166.4927-.0488.7227h-6.29c.1094.668.375 1.1743.7969 1.519.4209.3452.9277.5176 1.5186.5176.4932 0 .917-.1069 1.2725-.3203s.6377-.501.8457-.8623l1.7412.854c-.8545 1.4893-2.1514 2.2334-3.8926 2.2334-.832 0-1.582-.1914-2.249-.5747zm4.2363-4.894c-.0215-.2627-.1172-.5225-.2871-.7798s-.4053-.4707-.7061-.6406c-.3018-.1694-.6543-.2544-1.0596-.2544-.5146 0-.9551.1504-1.3223.4517-.3662.3013-.6318.709-.7959 1.2231h4.1709z"/><path d="m872.6689 158.1211h2.0195v1.0181h.1318c.2295-.3608.5635-.665 1.002-.9111.4375-.2466.9414-.3696 1.5107-.3696.7549 0 1.4424.189 2.0605.5664.6191.3779 1.1035.9062 1.4541 1.585.3496.6787.5254 1.4453.5254 2.2993 0 .8647-.1758 1.6338-.5254 2.3071-.3506.6733-.835 1.1987-1.4541 1.5767-.6182.3774-1.3057.5664-2.0605.5664-.5693 0-1.0762-.1206-1.5195-.3613s-.7744-.542-.9932-.9033h-.1318l.1318 1.1826v3.3667h-2.1514v-11.9229zm5.4189 6.3394c.3506-.208.6299-.4985.8379-.8706s.3125-.7988.3125-1.2808-.1045-.9087-.3125-1.2812c-.208-.3721-.4873-.6592-.8379-.8623-.3506-.2021-.7275-.3037-1.1328-.3037-.3945 0-.7666.1016-1.1162.3037-.3506.2031-.6299.4902-.8379.8623-.208.3726-.3125.7993-.3125 1.2812s.1045.9087.3125 1.2808.4873.6626.8379.8706c.3496.208.7217.312 1.1162.312.4053 0 .7822-.104 1.1328-.312z"/><path d="m883.4092 165.9795c-.5693-.52-.8535-1.2017-.8535-2.0449 0-.5581.1475-1.0508.4434-1.478.2949-.4268.7002-.7554 1.2148-.9854s1.084-.3447 1.708-.3447c.8643 0 1.6035.126 2.2168.3779v-.3613c0-.46-.1719-.832-.5176-1.1167-.3447-.2847-.8066-.4272-1.3877-.4272-.3936 0-.7744.0903-1.1406.271-.3672.1807-.6709.4189-.9121.7144l-1.3789-1.084c.4043-.5254.9141-.9302 1.5273-1.2148.6123-.2847 1.2803-.4272 2.0029-.4272 1.2812 0 2.2559.2954 2.9238.8867.667.5913 1.002 1.4565 1.002 2.5947v5.1567h-2.1191v-.854h-.1309c-.252.3286-.583.5967-.9941.8047-.4102.208-.8838.312-1.4199.312-.8867 0-1.6152-.2603-2.1846-.7798zm4.1797-1.4946c.3662-.3994.5498-.8677.5498-1.4043-.5586-.2627-1.1436-.394-1.7568-.394-1.1172 0-1.6748.4165-1.6748 1.248 0 .3398.1201.6157.3604.8296.2412.2134.5859.3203 1.0352.3203.624 0 1.1191-.1997 1.4863-.5996z"/><path d="m892.2441 158.1211h2.0205v1.1167h.1309c.208-.394.5312-.7227.9688-.9854.4385-.2627.9199-.394 1.4453-.394.3838 0 .7334.0659 1.0508.1973v2.1348c-.2949-.1094-.5439-.189-.7471-.2383-.2021-.0493-.418-.0737-.6484-.0737-.6348 0-1.1387.2305-1.5107.6914s-.5586 1.0425-.5586 1.7451v4.1816h-2.1514v-8.3755z"/><path d="m899.3711 165.9795c-.5693-.52-.8535-1.2017-.8535-2.0449 0-.5581.1475-1.0508.4434-1.478.2949-.4268.7002-.7554 1.2148-.9854s1.084-.3447 1.708-.3447c.8643 0 1.6035.126 2.2168.3779v-.3613c0-.46-.1719-.832-.5176-1.1167-.3447-.2847-.8066-.4272-1.3877-.4272-.3936 0-.7744.0903-1.1406.271-.3672.1807-.6709.4189-.9121.7144l-1.3789-1.084c.4043-.5254.9141-.9302 1.5273-1.2148.6123-.2847 1.2803-.4272 2.0029-.4272 1.2812 0 2.2559.2954 2.9238.8867.667.5913 1.002 1.4565 1.002 2.5947v5.1567h-2.1191v-.854h-.1309c-.252.3286-.583.5967-.9941.8047-.4102.208-.8838.312-1.4199.312-.8867 0-1.6152-.2603-2.1846-.7798zm4.1797-1.4946c.3662-.3994.5498-.8677.5498-1.4043-.5586-.2627-1.1436-.394-1.7568-.394-1.1172 0-1.6748.4165-1.6748 1.248 0 .3398.1201.6157.3604.8296.2412.2134.5859.3203 1.0352.3203.624 0 1.1191-.1997 1.4863-.5996z"/><path d="m912.0488 158.1211h2.0205v1.1167h.1309c.208-.394.5312-.7227.9688-.9854.4385-.2627.9199-.394 1.4453-.394.3838 0 .7334.0659 1.0508.1973v2.1348c-.2949-.1094-.5439-.189-.7471-.2383-.2021-.0493-.418-.0737-.6484-.0737-.6348 0-1.1387.2305-1.5107.6914s-.5586 1.0425-.5586 1.7451v4.1816h-2.1514v-8.3755z"/><path d="m920.2441 166.1846c-.668-.3833-1.1914-.9116-1.5684-1.585-.3779-.6733-.5674-1.4312-.5674-2.2744 0-.7988.1865-1.5405.5586-2.2251.3721-.6841.8867-1.229 1.5439-1.6343.6572-.4048 1.3906-.6074 2.2002-.6074.8652 0 1.6094.1865 2.2334.5586s1.0977.8813 1.4209 1.5269c.3232.6465.4844 1.3633.4844 2.1514 0 .252-.0166.4927-.0488.7227h-6.29c.1094.668.375 1.1743.7969 1.519.4209.3452.9277.5176 1.5186.5176.4932 0 .917-.1069 1.2725-.3203s.6377-.501.8457-.8623l1.7412.854c-.8545 1.4893-2.1514 2.2334-3.8926 2.2334-.832 0-1.582-.1914-2.249-.5747zm4.2363-4.894c-.0215-.2627-.1172-.5225-.2871-.7798s-.4053-.4707-.7061-.6406c-.3018-.1694-.6543-.2544-1.0596-.2544-.5146 0-.9551.1504-1.3223.4517-.3662.3013-.6318.709-.7959 1.2231h4.1709z"/><path d="m929.9658 166.1929c-.668-.3779-1.1914-.9058-1.5684-1.585-.3779-.6787-.5674-1.4448-.5674-2.2988s.1895-1.6177.5674-2.291c.377-.6733.9004-1.2017 1.5684-1.585.667-.3828 1.4229-.5747 2.2656-.5747.9307 0 1.7295.1997 2.3975.5996.668.3994 1.1504.9663 1.4453 1.6997l-1.9707.8208c-.3506-.7441-.9746-1.1167-1.8721-1.1167-.6562 0-1.1963.2246-1.6172.6733-.4219.4492-.6328 1.0405-.6328 1.7739 0 .7446.2109 1.3408.6328 1.79.4209.4487.9609.6733 1.6172.6733.9092 0 1.5654-.3945 1.9707-1.1826l1.9541.854c-.3613.7334-.876 1.3027-1.543 1.708-.668.4048-1.4619.6074-2.3818.6074-.8428 0-1.5986-.189-2.2656-.5664z"/><path d="m937.9307 156.791c-.2744-.2734-.4111-.6021-.4111-.9854s.1367-.709.4111-.9771c.2734-.2681.6016-.4023.9854-.4023.3828 0 .708.1343.9766.4023s.4023.5938.4023.9771-.1338.7119-.4023.9854c-.2686.2739-.5938.4106-.9766.4106-.3838 0-.7119-.1367-.9854-.4106zm-.0986 1.3301h2.1514v8.3755h-2.1514z"/><path d="m945.3613 166.3979c-.4434-.2407-.7754-.542-.9941-.9033h-.1309v1.002h-2.0205v-11.7583h2.1514v3.2188l-.1309 1.1821h.1309c.2305-.3608.5635-.665 1.002-.9111.4375-.2466.9414-.3696 1.5107-.3696.7559 0 1.4424.189 2.0615.5664.6182.3779 1.1025.9062 1.4531 1.585s.5254 1.4453.5254 2.2993c0 .8647-.1748 1.6338-.5254 2.3071s-.835 1.1987-1.4531 1.5767c-.6191.3774-1.3057.5664-2.0615.5664-.5693 0-1.0752-.1206-1.5186-.3613zm2.2744-1.9375c.3496-.208.6289-.4985.8369-.8706s.3125-.7988.3125-1.2808-.1045-.9087-.3125-1.2812c-.208-.3721-.4873-.6592-.8369-.8623-.3506-.2021-.7285-.3037-1.1338-.3037-.3936 0-.7666.1016-1.1162.3037-.3506.2031-.6299.4902-.8379.8623-.208.3726-.3115.7993-.3115 1.2812s.1035.9087.3115 1.2808.4873.6626.8379.8706c.3496.208.7227.312 1.1162.312.4053 0 .7832-.104 1.1338-.312z"/><path d="m952.7275 156.791c-.2744-.2734-.4111-.6021-.4111-.9854s.1367-.709.4111-.9771c.2734-.2681.6016-.4023.9854-.4023.3828 0 .708.1343.9766.4023s.4023.5938.4023.9771-.1338.7119-.4023.9854c-.2686.2739-.5938.4106-.9766.4106-.3838 0-.7119-.1367-.9854-.4106zm-.0986 1.3301h2.1514v8.3755h-2.1514z"/><path d="m957.0127 158.1211h2.0205v1.1167h.1309c.208-.394.5312-.7227.9688-.9854.4385-.2627.9199-.394 1.4453-.394.3838 0 .7334.0659 1.0508.1973v2.1348c-.2949-.1094-.5439-.189-.7471-.2383-.2021-.0493-.418-.0737-.6484-.0737-.6348 0-1.1387.2305-1.5107.6914s-.5586 1.0425-.5586 1.7451v4.1816h-2.1514v-8.3755z"/><path d="m782.3799 177.8281h2.0205v1.0513h.1309c.252-.4053.6074-.7251 1.0674-.9609.46-.2354.958-.353 1.4951-.353 1.0068 0 1.7734.3066 2.2988.9199.5254.6128.7881 1.4507.7881 2.5122v5.2061h-2.1514v-4.9434c0-.5361-.1367-.9521-.4102-1.248-.2744-.2954-.6572-.4434-1.1494-.4434-.5811 0-1.0488.2246-1.4043.6733-.3564.4492-.5342 1.0127-.5342 1.6914v4.27h-2.1514v-8.3755z"/><path d="m792.9395 185.5303c-.5254-.624-.7881-1.4946-.7881-2.6113v-5.0908h2.1514v4.8281c0 .5693.1367 1.0156.4102 1.3384.2734.3232.6348.4849 1.084.4849.6133 0 1.1006-.2246 1.4619-.6733.3613-.4492.542-1.0186.542-1.708v-4.27h2.1514v8.3755h-2.0205v-1.0513h-.1309c-.252.4053-.6055.7256-1.0596.9609s-.9551.353-1.5029.353c-1.0068 0-1.7734-.312-2.2988-.936z"/><path d="m803.6475 185.8916c-.668-.3833-1.1914-.9116-1.5684-1.585-.3779-.6733-.5674-1.4312-.5674-2.2744 0-.7988.1865-1.5405.5586-2.2251.3721-.6841.8867-1.229 1.5439-1.6343.6572-.4048 1.3906-.6074 2.2002-.6074.8652 0 1.6094.1865 2.2334.5586s1.0977.8813 1.4209 1.5269c.3232.6465.4844 1.3633.4844 2.1514 0 .252-.0166.4927-.0488.7227h-6.29c.1094.668.375 1.1743.7969 1.519.4209.3452.9277.5176 1.5186.5176.4932 0 .917-.1069 1.2725-.3203s.6377-.501.8457-.8623l1.7412.854c-.8545 1.4893-2.1514 2.2334-3.8926 2.2334-.832 0-1.582-.1914-2.249-.5747zm4.2363-4.894c-.0215-.2627-.1172-.5225-.2871-.7798s-.4053-.4707-.7061-.6406c-.3018-.1694-.6543-.2544-1.0596-.2544-.5146 0-.9551.1504-1.3223.4517-.3662.3013-.6318.709-.7959 1.2231h4.1709z"/><path d="m812.4082 185.8423c-.6299-.416-1.0703-.958-1.3223-1.626l1.9219-.8374c.1748.394.4238.6924.7471.895.3223.2026.6973.3037 1.125.3037.3936 0 .7227-.0625.9854-.1885s.3936-.3311.3936-.6162c0-.2734-.1201-.4785-.3613-.6157-.2402-.1367-.6016-.2598-1.084-.3696l-.9854-.2134c-.6787-.1641-1.2422-.4624-1.6914-.895-.4492-.4321-.6729-.9712-.6729-1.6177 0-.4814.1445-.9141.4346-1.2974.29-.3828.6846-.6787 1.1826-.8867s1.0488-.312 1.6504-.312c1.7305 0 2.8848.6074 3.4658 1.8228l-1.8398.8047c-.3281-.5908-.8535-.8867-1.5762-.8867-.373 0-.668.0684-.8867.2056-.2197.1367-.3291.3091-.3291.5171 0 .394.3721.6899 1.1172.8867l1.2314.2959c.832.208 1.459.5254 1.8809.9521.4209.4272.6318.9526.6318 1.5767 0 .5366-.1562 1.0098-.4678 1.4204-.3125.4106-.7393.731-1.2812.9609s-1.1416.3447-1.7979.3447c-1.0186 0-1.8428-.208-2.4717-.624z"/><path d="m822.4004 186.2739c-.3506-.1284-.6348-.3042-.8535-.5273-.5146-.5024-.7715-1.2168-.7715-2.144v-3.9351h-1.4619v-1.8394h1.4619v-2.3647h2.1504v2.3647h2.0537v1.8394h-2.0537v3.563c0 .4395.0938.7544.2793.9458.1533.1802.416.27.7891.27.207 0 .3799-.0269.5166-.082.1367-.0547.3145-.1479.5342-.2793v2.1021c-.4707.186-.9688.2793-1.4941.2793-.417 0-.7998-.0645-1.1504-.1924z"/><path d="m826.7695 177.8281h2.0205v1.1167h.1309c.208-.394.5312-.7227.9688-.9854.4385-.2627.9199-.394 1.4453-.394.3838 0 .7334.0659 1.0508.1973v2.1348c-.2949-.1094-.5439-.189-.7471-.2383-.2021-.0493-.418-.0737-.6484-.0737-.6348 0-1.1387.2305-1.5107.6914s-.5586 1.0425-.5586 1.7451v4.1816h-2.1514v-8.3755z"/><path d="m833.8965 185.6865c-.5693-.52-.8535-1.2017-.8535-2.0449 0-.5581.1475-1.0508.4434-1.478.2949-.4268.7002-.7554 1.2148-.9854s1.084-.3447 1.708-.3447c.8643 0 1.6035.126 2.2168.3779v-.3613c0-.46-.1719-.832-.5176-1.1167-.3447-.2847-.8066-.4272-1.3877-.4272-.3936 0-.7744.0903-1.1406.271-.3672.1807-.6709.4189-.9121.7144l-1.3789-1.084c.4043-.5254.9141-.9302 1.5273-1.2148.6123-.2847 1.2803-.4272 2.0029-.4272 1.2812 0 2.2559.2954 2.9238.8867.667.5913 1.002 1.4565 1.002 2.5947v5.1567h-2.1191v-.854h-.1309c-.252.3286-.583.5967-.9941.8047-.4102.208-.8838.312-1.4199.312-.8867 0-1.6152-.2603-2.1846-.7798zm4.1797-1.4946c.3662-.3994.5498-.8677.5498-1.4043-.5586-.2627-1.1436-.394-1.7568-.394-1.1172 0-1.6748.4165-1.6748 1.248 0 .3398.1201.6157.3604.8296.2412.2134.5859.3203 1.0352.3203.624 0 1.1191-.1997 1.4863-.5996z"/><path d="m846.5742 177.8281h2.0205v1.0513h.1309c.252-.4053.6074-.7251 1.0674-.9609.46-.2354.958-.353 1.4951-.353 1.0068 0 1.7734.3066 2.2988.9199.5254.6128.7881 1.4507.7881 2.5122v5.2061h-2.1514v-4.9434c0-.5361-.1367-.9521-.4102-1.248-.2744-.2954-.6572-.4434-1.1494-.4434-.5811 0-1.0488.2246-1.4043.6733-.3564.4492-.5342 1.0127-.5342 1.6914v4.27h-2.1514v-8.3755z"/><path d="m858.0869 185.8916c-.668-.3833-1.1914-.9116-1.5684-1.585-.3779-.6733-.5674-1.4312-.5674-2.2744 0-.7988.1865-1.5405.5586-2.2251.3721-.6841.8867-1.229 1.5439-1.6343.6572-.4048 1.3906-.6074 2.2002-.6074.8652 0 1.6094.1865 2.2334.5586s1.0977.8813 1.4209 1.5269c.3232.6465.4844 1.3633.4844 2.1514 0 .252-.0166.4927-.0488.7227h-6.29c.1094.668.375 1.1743.7969 1.519.4209.3452.9277.5176 1.5186.5176.4932 0 .917-.1069 1.2725-.3203s.6377-.501.8457-.8623l1.7412.854c-.8545 1.4893-2.1514 2.2334-3.8926 2.2334-.832 0-1.582-.1914-2.249-.5747zm4.2363-4.894c-.0215-.2627-.1172-.5225-.2871-.7798s-.4053-.4707-.7061-.6406c-.3018-.1694-.6543-.2544-1.0596-.2544-.5146 0-.9551.1504-1.3223.4517-.3662.3013-.6318.709-.7959 1.2231h4.1709z"/><path d="m864.9512 177.8281h2.4141l1.4453 5.436h.1143l1.6758-5.436h2.2002l1.6748 5.436h.1152l1.4453-5.436h2.3809l-2.6768 8.3755h-2.3154l-1.708-5.4194h-.1152l-1.6914 5.4194h-2.2988l-2.6602-8.3755z"/><path d="m880.2812 185.8423c-.6299-.416-1.0703-.958-1.3223-1.626l1.9219-.8374c.1748.394.4238.6924.7471.895.3223.2026.6973.3037 1.125.3037.3936 0 .7227-.0625.9854-.1885s.3936-.3311.3936-.6162c0-.2734-.1201-.4785-.3613-.6157-.2402-.1367-.6016-.2598-1.084-.3696l-.9854-.2134c-.6787-.1641-1.2422-.4624-1.6914-.895-.4492-.4321-.6729-.9712-.6729-1.6177 0-.4814.1445-.9141.4346-1.2974.29-.3828.6846-.6787 1.1826-.8867s1.0488-.312 1.6504-.312c1.7305 0 2.8848.6074 3.4658 1.8228l-1.8398.8047c-.3281-.5908-.8535-.8867-1.5762-.8867-.373 0-.668.0684-.8867.2056-.2197.1367-.3291.3091-.3291.5171 0 .394.3721.6899 1.1172.8867l1.2314.2959c.832.208 1.459.5254 1.8809.9521.4209.4272.6318.9526.6318 1.5767 0 .5366-.1562 1.0098-.4678 1.4204-.3125.4106-.7393.731-1.2812.9609s-1.1416.3447-1.7979.3447c-1.0186 0-1.8428-.208-2.4717-.624z"/><path d="m887.8594 174.4453h2.1514v11.7583h-2.1514z"/><path d="m893.7236 185.8916c-.668-.3833-1.1914-.9116-1.5684-1.585-.3779-.6733-.5674-1.4312-.5674-2.2744 0-.7988.1865-1.5405.5586-2.2251.3721-.6841.8867-1.229 1.5439-1.6343.6572-.4048 1.3906-.6074 2.2002-.6074.8652 0 1.6094.1865 2.2334.5586s1.0977.8813 1.4209 1.5269c.3232.6465.4844 1.3633.4844 2.1514 0 .252-.0166.4927-.0488.7227h-6.29c.1094.668.375 1.1743.7969 1.519.4209.3452.9277.5176 1.5186.5176.4932 0 .917-.1069 1.2725-.3203s.6377-.501.8457-.8623l1.7412.854c-.8545 1.4893-2.1514 2.2334-3.8926 2.2334-.832 0-1.582-.1914-2.249-.5747zm4.2363-4.894c-.0215-.2627-.1172-.5225-.2871-.7798s-.4053-.4707-.7061-.6406c-.3018-.1694-.6543-.2544-1.0596-.2544-.5146 0-.9551.1504-1.3223.4517-.3662.3013-.6318.709-.7959 1.2231h4.1709z"/><path d="m903.9365 186.146c-.3506-.1255-.6348-.2979-.8535-.5171-.5146-.4927-.7715-1.1934-.7715-2.1021v-3.8594h-1.4619v-1.8394h1.4619v-2.3647h2.1504v2.3647h3.1699v-2.3647h2.1514v2.3647h2.0527v1.8394h-2.0527v3.4653c0 .416.0928.7222.2793.9194.1748.1753.4434.2627.8047.2627.1973 0 .3643-.0269.501-.082.1367-.0547.3145-.1479.5332-.2793v2.1021c-.4707.186-.9688.2793-1.4941.2793-.416 0-.7969-.063-1.1416-.189-.3447-.1255-.6318-.2979-.8623-.5171-.5146-.5146-.7715-1.2153-.7715-2.1021v-3.8594h-3.1699v3.4653c0 .4268.0938.7334.2793.9194.1533.1753.4053.2627.7559.2627.1641 0 .2979-.019.4023-.0576.1035-.0381.249-.1064.4355-.2051v2.0693c-.3613.1421-.7783.2134-1.248.2134-.417 0-.7998-.063-1.1504-.189z"/><path d="m915.0068 185.8916c-.668-.3833-1.1914-.9116-1.5684-1.585-.3779-.6733-.5674-1.4312-.5674-2.2744 0-.7988.1865-1.5405.5586-2.2251.3721-.6841.8867-1.229 1.5439-1.6343.6572-.4048 1.3906-.6074 2.2002-.6074.8652 0 1.6094.1865 2.2334.5586s1.0977.8813 1.4209 1.5269c.3232.6465.4844 1.3633.4844 2.1514 0 .252-.0166.4927-.0488.7227h-6.29c.1094.668.375 1.1743.7969 1.519.4209.3452.9277.5176 1.5186.5176.4932 0 .917-.1069 1.2725-.3203s.6377-.501.8457-.8623l1.7412.854c-.8545 1.4893-2.1514 2.2334-3.8926 2.2334-.832 0-1.582-.1914-2.249-.5747zm4.2363-4.894c-.0215-.2627-.1172-.5225-.2871-.7798s-.4053-.4707-.7061-.6406c-.3018-.1694-.6543-.2544-1.0596-.2544-.5146 0-.9551.1504-1.3223.4517-.3662.3013-.6318.709-.7959 1.2231h4.1709z"/><path d="m922.9707 177.8281h2.0205v1.1167h.1309c.208-.394.5312-.7227.9688-.9854.4385-.2627.9199-.394 1.4453-.394.3838 0 .7334.0659 1.0508.1973v2.1348c-.2949-.1094-.5439-.189-.7471-.2383-.2021-.0493-.418-.0737-.6484-.0737-.6348 0-1.1387.2305-1.5107.6914s-.5586 1.0425-.5586 1.7451v4.1816h-2.1514v-8.3755z"/><path d="m933.7598 177.8281h2.0195v1.0181h.1318c.2295-.3608.5635-.665 1.002-.9111.4375-.2466.9414-.3696 1.5107-.3696.7549 0 1.4424.189 2.0605.5664.6191.3779 1.1035.9062 1.4541 1.585.3496.6787.5254 1.4453.5254 2.2993 0 .8647-.1758 1.6338-.5254 2.3071-.3506.6733-.835 1.1987-1.4541 1.5767-.6182.3774-1.3057.5664-2.0605.5664-.5693 0-1.0762-.1206-1.5195-.3613s-.7744-.542-.9932-.9033h-.1318l.1318 1.1826v3.3667h-2.1514v-11.9229zm5.4189 6.3394c.3506-.208.6299-.4985.8379-.8706s.3125-.7988.3125-1.2808-.1045-.9087-.3125-1.2812c-.208-.3721-.4873-.6592-.8379-.8623-.3506-.2021-.7275-.3037-1.1328-.3037-.3945 0-.7666.1016-1.1162.3037-.3506.2031-.6299.4902-.8379.8623-.208.3726-.3125.7993-.3125 1.2812s.1045.9087.3125 1.2808.4873.6626.8379.8706c.3496.208.7217.312 1.1162.312.4053 0 .7822-.104 1.1328-.312z"/><path d="m945.8135 185.8833c-.6787-.3882-1.207-.9194-1.584-1.5928-.3779-.6733-.5674-1.4316-.5674-2.2744 0-.832.1895-1.5874.5674-2.2666.377-.6787.9053-1.2124 1.584-1.6011s1.4512-.583 2.3154-.583c.8545 0 1.6211.1943 2.2998.583s1.207.9224 1.585 1.6011c.377.6792.5664 1.4346.5664 2.2666 0 .8428-.1895 1.6011-.5664 2.2744-.3779.6733-.9062 1.2046-1.585 1.5928-.6787.3887-1.4453.583-2.2998.583-.8643 0-1.6367-.1943-2.3154-.583zm3.4658-1.6997c.3496-.1968.6289-.4814.8369-.854.208-.3721.3125-.8101.3125-1.3135 0-.4927-.1045-.9253-.3125-1.2974s-.4873-.6572-.8369-.854c-.3506-.1973-.7344-.2959-1.1504-.2959s-.7988.0986-1.1494.2959c-.3506.1968-.6318.4819-.8457.854-.2129.3721-.3203.8047-.3203 1.2974s.1074.9277.3203 1.3052c.2139.3779.4951.6655.8457.8623.3506.1973.7334.2959 1.1494.2959s.7998-.0986 1.1504-.2959z"/><path d="m954.0576 177.8281h2.0205v1.1167h.1309c.208-.394.5312-.7227.9688-.9854.4385-.2627.9199-.394 1.4453-.394.3838 0 .7334.0659 1.0508.1973v2.1348c-.2949-.1094-.5439-.189-.7471-.2383-.2021-.0493-.418-.0737-.6484-.0737-.6348 0-1.1387.2305-1.5107.6914s-.5586 1.0425-.5586 1.7451v4.1816h-2.1514v-8.3755z"/><path d="m966.5879 185.8999c-.668-.3779-1.1914-.9058-1.5684-1.585-.3779-.6787-.5674-1.4448-.5674-2.2988s.1895-1.6177.5674-2.291c.377-.6733.9004-1.2017 1.5684-1.585.667-.3828 1.4229-.5747 2.2656-.5747.9307 0 1.7295.1997 2.3975.5996.668.3994 1.1504.9663 1.4453 1.6997l-1.9707.8208c-.3506-.7441-.9746-1.1167-1.8721-1.1167-.6562 0-1.1963.2246-1.6172.6733-.4219.4492-.6328 1.0405-.6328 1.7739 0 .7446.2109 1.3408.6328 1.79.4209.4487.9609.6733 1.6172.6733.9092 0 1.5654-.3945 1.9707-1.1826l1.9541.854c-.3613.7334-.876 1.3027-1.543 1.708-.668.4048-1.4619.6074-2.3818.6074-.8428 0-1.5986-.189-2.2656-.5664z"/><path d="m975.9316 185.8833c-.6787-.3882-1.207-.9194-1.584-1.5928-.3779-.6733-.5674-1.4316-.5674-2.2744 0-.832.1895-1.5874.5674-2.2666.377-.6787.9053-1.2124 1.584-1.6011s1.4512-.583 2.3154-.583c.8545 0 1.6211.1943 2.2998.583s1.207.9224 1.585 1.6011c.377.6792.5664 1.4346.5664 2.2666 0 .8428-.1895 1.6011-.5664 2.2744-.3779.6733-.9062 1.2046-1.585 1.5928-.6787.3887-1.4453.583-2.2998.583-.8643 0-1.6367-.1943-2.3154-.583zm3.4658-1.6997c.3496-.1968.6289-.4814.8369-.854.208-.3721.3125-.8101.3125-1.3135 0-.4927-.1045-.9253-.3125-1.2974s-.4873-.6572-.8369-.854c-.3506-.1973-.7344-.2959-1.1504-.2959s-.7988.0986-1.1494.2959c-.3506.1968-.6318.4819-.8457.854-.2129.3721-.3203.8047-.3203 1.2974s.1074.9277.3203 1.3052c.2139.3779.4951.6655.8457.8623.3506.1973.7334.2959 1.1494.2959s.7998-.0986 1.1504-.2959z"/><path d="m984.1758 177.8281h2.0205v1.1167h.1309c.208-.394.5312-.7227.9688-.9854.4385-.2627.9199-.394 1.4453-.394.3838 0 .7334.0659 1.0508.1973v2.1348c-.2949-.1094-.5439-.189-.7471-.2383-.2021-.0493-.418-.0737-.6484-.0737-.6348 0-1.1387.2305-1.5107.6914s-.5586 1.0425-.5586 1.7451v4.1816h-2.1514v-8.3755z"/><path d="m991.1875 177.8281h2.0205v1.1167h.1309c.208-.394.5312-.7227.9688-.9854.4385-.2627.9199-.394 1.4453-.394.3838 0 .7334.0659 1.0508.1973v2.1348c-.2949-.1094-.5439-.189-.7471-.2383-.2021-.0493-.418-.0737-.6484-.0737-.6348 0-1.1387.2305-1.5107.6914s-.5586 1.0425-.5586 1.7451v4.1816h-2.1514v-8.3755z"/><path d="m999.3828 185.8916c-.668-.3833-1.1914-.9116-1.5684-1.585-.3779-.6733-.5674-1.4312-.5674-2.2744 0-.7988.1865-1.5405.5586-2.2251.3721-.6841.8867-1.229 1.5439-1.6343.6572-.4048 1.3906-.6074 2.2002-.6074.8652 0 1.6094.1865 2.2334.5586s1.0977.8813 1.4209 1.5269c.3232.6465.4844 1.3633.4844 2.1514 0 .252-.0166.4927-.0488.7227h-6.29c.1094.668.375 1.1743.7969 1.519.4209.3452.9277.5176 1.5186.5176.4932 0 .917-.1069 1.2725-.3203s.6377-.501.8457-.8623l1.7412.854c-.8545 1.4893-2.1514 2.2334-3.8926 2.2334-.832 0-1.582-.1914-2.249-.5747zm4.2363-4.894c-.0215-.2627-.1172-.5225-.2871-.7798s-.4053-.4707-.7061-.6406c-.3018-.1694-.6543-.2544-1.0596-.2544-.5146 0-.9551.1504-1.3223.4517-.3662.3013-.6318.709-.7959 1.2231h4.1709z"/><path d="m1009.1201 185.8833c-.6787-.3882-1.207-.9194-1.584-1.5928-.3779-.6733-.5674-1.4316-.5674-2.2744 0-.832.1895-1.5874.5674-2.2666.377-.6787.9053-1.2124 1.584-1.6011s1.4512-.583 2.3154-.583c.8545 0 1.6211.1943 2.2998.583s1.207.9224 1.585 1.6011c.377.6792.5664 1.4346.5664 2.2666 0 .8428-.1895 1.6011-.5664 2.2744-.3779.6733-.9062 1.2046-1.585 1.5928-.6787.3887-1.4453.583-2.2998.583-.8643 0-1.6367-.1943-2.3154-.583zm3.4658-1.6997c.3496-.1968.6289-.4814.8369-.854.208-.3721.3125-.8101.3125-1.3135 0-.4927-.1045-.9253-.3125-1.2974s-.4873-.6572-.8369-.854c-.3506-.1973-.7344-.2959-1.1504-.2959s-.7988.0986-1.1494.2959c-.3506.1968-.6318.4819-.8457.854-.2129.3721-.3203.8047-.3203 1.2974s.1074.9277.3203 1.3052c.2139.3779.4951.6655.8457.8623.3506.1973.7334.2959 1.1494.2959s.7998-.0986 1.1504-.2959z"/><path d="m1017.8164 185.7847c-.2793-.2788-.4189-.6157-.4189-1.0098s.1396-.728.4189-1.002c.2783-.2734.6152-.4106 1.0098-.4106.3936 0 .7305.1372 1.0098.4106.2793.2739.4189.6079.4189 1.002s-.1396.731-.4189 1.0098c-.2793.2793-.6162.4189-1.0098.4189-.3945 0-.7314-.1396-1.0098-.4189zm-.0908-7.9565v-3.3828h2.2002v3.3828l-.1963 4.3354h-1.8066z"/></g><path d="m703.3203 262.1396c-1.0068-.5796-1.7988-1.3691-2.3779-2.3696-.5801-1.0005-.8691-2.1094-.8691-3.3262s.2891-2.3257.8691-3.3262c.5791-1.0005 1.3711-1.7905 2.3779-2.3696 1.0059-.5796 2.1182-.8691 3.335-.8691 1.8955 0 3.4639.6846 4.7041 2.0537l-1.668 1.6147c-.8066-.9478-1.8135-1.4214-3.0186-1.4214-.7842 0-1.498.1782-2.1416.5352s-1.1494.8633-1.5186 1.5181c-.3682.6558-.5527 1.4106-.5527 2.2646s.1846 1.6089.5527 2.2642c.3691.6553.875 1.1616 1.5186 1.5181.6436.3574 1.3574.5356 2.1416.5356 1.3223 0 2.4277-.5498 3.3174-1.6499l1.6855 1.5972c-.6211.749-1.3555 1.3193-2.2031 1.7114-.8486.3921-1.7881.5879-2.8174.5879-1.2168 0-2.3291-.2896-3.335-.8687z" fill="#202124"/><path d="m715.0107 262.3853c-.7256-.415-1.29-.9829-1.6943-1.7026-.4033-.7197-.6055-1.5298-.6055-2.4312 0-.8892.2021-1.6963.6055-2.4219.4043-.7256.9688-1.2959 1.6943-1.7114.7246-.4155 1.5498-.623 2.4746-.623.9131 0 1.7314.2075 2.457.623s1.29.9858 1.6943 1.7114c.4033.7256.6055 1.5327.6055 2.4219 0 .9014-.2021 1.7114-.6055 2.4312-.4043.7197-.9688 1.2876-1.6943 1.7026s-1.5439.623-2.457.623c-.9248 0-1.75-.208-2.4746-.623zm3.7031-1.8169c.374-.2104.6729-.5146.8955-.9126.2217-.3975.333-.8657.333-1.4043 0-.5264-.1113-.9888-.333-1.3867-.2227-.3975-.5215-.7017-.8955-.9126-.375-.2104-.7842-.3159-1.2285-.3159-.4453 0-.8545.1055-1.2285.3159-.375.2109-.6758.5151-.9043.9126-.2285.3979-.3418.8604-.3418 1.3867 0 .5269.1133.9917.3418 1.3955s.5293.7109.9043.9214c.374.2109.7832.3159 1.2285.3159.4443 0 .8535-.105 1.2285-.3159z" fill="#202124"/><path d="m723.8213 253.7759h2.1592v1.123h.1406c.2803-.4326.6582-.7749 1.1318-1.0269.4746-.2515 1.0039-.377 1.5889-.377.6318 0 1.1816.1489 1.6494.4473.4688.2983.8018.6758 1.001 1.1323.292-.4678.6934-.8481 1.2021-1.1411.5088-.2925 1.1084-.4385 1.7988-.4385 1.0186 0 1.7939.313 2.3262.939s.7988 1.4717.7988 2.5361v5.7573h-2.2822v-5.3359c0-.5615-.1318-.9946-.3945-1.2988-.2637-.3042-.6289-.4565-1.0977-.4565-.5967 0-1.0732.2368-1.4297.7109-.3574.4741-.5361 1.0972-.5361 1.8691v4.5112h-2.2988v-5.3359c0-.5615-.1377-.9946-.4131-1.2988-.2744-.3042-.6641-.4565-1.167-.4565-.5615 0-1.0156.2368-1.3604.7109s-.5176 1.0972-.5176 1.8691v4.5112h-2.2998v-8.9517z" fill="#202124"/><path d="m741.6025 262.394c-.7139-.4097-1.2725-.9741-1.6768-1.6938-.4033-.7197-.6055-1.5298-.6055-2.4312 0-.854.1992-1.647.5967-2.3784.3975-.731.9482-1.3135 1.6504-1.7461.7021-.4331 1.4854-.6494 2.3516-.6494.9248 0 1.7207.1987 2.3877.5967s1.1729.9419 1.5176 1.6323c.3457.6904.5186 1.457.5186 2.2993 0 .2695-.0176.5264-.0527.7725h-6.7227c.1162.7139.4004 1.2549.8506 1.6235.4512.3687.9922.5527 1.624.5527.5264 0 .9795-.1138 1.3604-.3423.3799-.228.6816-.5352.9043-.9214l1.8604.9126c-.9131 1.5918-2.2998 2.3872-4.1602 2.3872-.8896 0-1.6914-.2046-2.4043-.6143zm4.5283-5.2305c-.0234-.2812-.126-.5591-.3076-.834s-.4326-.5029-.7549-.6846c-.3213-.1812-.6992-.272-1.1318-.272-.5498 0-1.0205.1611-1.4131.4824-.3916.3223-.6758.7578-.8506 1.3081h4.458z" fill="#202124"/><path d="m750.1152 253.7759h2.1592v1.1934h.1406c.2217-.4214.5674-.7725 1.0352-1.0532s.9834-.4209 1.5449-.4209c.4092 0 .7842.0698 1.123.2104v2.2817c-.3154-.1167-.582-.2017-.7979-.2544-.2168-.0527-.4482-.0791-.6934-.0791-.6787 0-1.2178.2466-1.6152.7393s-.5967 1.1143-.5967 1.8652v4.4692h-2.2998v-8.9517z" fill="#202124"/><path d="m758.874 262.4028c-.7139-.4038-1.2725-.9683-1.6768-1.6938-.4033-.7256-.6055-1.5444-.6055-2.4575 0-.9126.2021-1.729.6055-2.4482.4043-.7197.9629-1.2842 1.6768-1.6938.7129-.4097 1.5205-.6143 2.4219-.6143.9941 0 1.8486.2134 2.5625.6406s1.2285 1.0327 1.5449 1.8164l-2.1064.8779c-.375-.7959-1.042-1.1938-2.001-1.1938-.7021 0-1.2783.2402-1.7285.7197-.4512.48-.6758 1.1118-.6758 1.8955 0 .7959.2246 1.4336.6758 1.9136.4502.48 1.0264.7192 1.7285.7192.9717 0 1.6729-.4209 2.1064-1.2637l2.0889.9131c-.3867.7837-.9365 1.3926-1.6504 1.8252s-1.5615.6494-2.5449.6494c-.9014 0-1.709-.2017-2.4219-.6055z" fill="#202124"/><path d="m767.3867 252.354c-.293-.2925-.4385-.6436-.4385-1.0532s.1455-.7573.4385-1.0444c.292-.2866.6436-.4302 1.0527-.4302.4102 0 .7578.1436 1.0449.4302.2861.2871.4297.6348.4297 1.0444s-.1436.7607-.4297 1.0532c-.2871.2925-.6348.439-1.0449.439-.4092 0-.7607-.1465-1.0527-.439zm-.1055 1.4219h2.2998v8.9517h-2.2998z" fill="#202124"/><path d="m773.6885 262.3853c-.7256-.415-1.29-.9829-1.6943-1.7026-.4033-.7197-.6055-1.5298-.6055-2.4312 0-.8892.2021-1.6963.6055-2.4219.4043-.7256.9688-1.2959 1.6943-1.7114.7246-.4155 1.5498-.623 2.4746-.623.9131 0 1.7314.2075 2.457.623s1.29.9858 1.6943 1.7114c.4033.7256.6055 1.5327.6055 2.4219 0 .9014-.2021 1.7114-.6055 2.4312-.4043.7197-.9688 1.2876-1.6943 1.7026s-1.5439.623-2.457.623c-.9248 0-1.75-.208-2.4746-.623zm3.7031-1.8169c.374-.2104.6729-.5146.8955-.9126.2217-.3975.333-.8657.333-1.4043 0-.5264-.1113-.9888-.333-1.3867-.2227-.3975-.5215-.7017-.8955-.9126-.375-.2104-.7842-.3159-1.2285-.3159-.4453 0-.8545.1055-1.2285.3159-.375.2109-.6758.5151-.9043.9126-.2285.3979-.3418.8604-.3418 1.3867 0 .5269.1133.9917.3418 1.3955s.5293.7109.9043.9214c.374.2109.7832.3159 1.2285.3159.4443 0 .8535-.105 1.2285-.3159z" fill="#202124"/><path d="m790.0996 250.1597h2.7207l4.7217 12.5679h-2.6162l-1.0527-3.0015h-4.8096l-1.0527 3.0015h-2.6152l4.7041-12.5679zm3.001 7.3896-1.1055-3.1592-.457-1.5098h-.1396l-.457 1.5098-1.123 3.1592h3.2822z" fill="#202124"/><path d="m703.3203 353.5508c-1.0068-.5791-1.7988-1.3691-2.3779-2.3701-.5801-1-.8691-2.1084-.8691-3.3262 0-1.2168.2891-2.3252.8691-3.3262.5791-1 1.3711-1.79 2.3779-2.3691 1.0059-.5791 2.1182-.8691 3.335-.8691 1.8955 0 3.4639.6846 4.7041 2.0537l-1.668 1.6152c-.8066-.9482-1.8135-1.4219-3.0186-1.4219-.7842 0-1.498.1787-2.1416.5352-.6436.3574-1.1494.8633-1.5186 1.5186-.3682.6553-.5527 1.4102-.5527 2.2637 0 .8545.1846 1.6094.5527 2.2646.3691.6553.875 1.1611 1.5186 1.5186.6436.3564 1.3574.5352 2.1416.5352 1.3223 0 2.4277-.5498 3.3174-1.6504l1.6855 1.5977c-.6211.749-1.3555 1.3193-2.2031 1.7109-.8486.3926-1.7881.5889-2.8174.5889-1.2168 0-2.3291-.29-3.335-.8691z" fill="#202124"/><path d="m715.0107 353.7969c-.7256-.416-1.29-.9834-1.6943-1.7031-.4033-.7197-.6055-1.5293-.6055-2.4307 0-.8896.2021-1.6973.6055-2.4229.4043-.7256.9688-1.2959 1.6943-1.7109.7246-.415 1.5498-.623 2.4746-.623.9131 0 1.7314.208 2.457.623s1.29.9854 1.6943 1.7109c.4033.7256.6055 1.5332.6055 2.4229 0 .9014-.2021 1.7109-.6055 2.4307-.4043.7197-.9688 1.2871-1.6943 1.7031-.7256.415-1.5439.623-2.457.623-.9248 0-1.75-.208-2.4746-.623zm3.7031-1.8174c.374-.21.6729-.5146.8955-.9121.2217-.3984.333-.8662.333-1.4043 0-.5273-.1113-.9893-.333-1.3867-.2227-.3975-.5215-.7021-.8955-.9131-.375-.2109-.7842-.3154-1.2285-.3154-.4453 0-.8545.1045-1.2285.3154-.375.2109-.6758.5156-.9043.9131s-.3418.8594-.3418 1.3867c0 .5264.1133.9912.3418 1.3955.2285.4033.5293.7109.9043.9209.374.2109.7832.3164 1.2285.3164.4443 0 .8535-.1055 1.2285-.3164z" fill="#202124"/><path d="m723.8213 345.1865h2.1592v1.124h.1406c.2803-.4336.6582-.7754 1.1318-1.0273.4746-.251 1.0039-.377 1.5889-.377.6318 0 1.1816.1494 1.6494.4473.4688.2988.8018.6758 1.001 1.1318.292-.4678.6934-.8477 1.2021-1.1406.5088-.292 1.1084-.4385 1.7988-.4385 1.0186 0 1.7939.3125 2.3262.9385.5322.627.7988 1.4717.7988 2.5371v5.7568h-2.2822v-5.3359c0-.5615-.1318-.9941-.3945-1.2988-.2637-.3047-.6289-.4561-1.0977-.4561-.5967 0-1.0732.2363-1.4297.7109-.3574.4736-.5361 1.0967-.5361 1.8691v4.5107h-2.2988v-5.3359c0-.5615-.1377-.9941-.4131-1.2988-.2744-.3047-.6641-.4561-1.167-.4561-.5615 0-1.0156.2363-1.3604.7109-.3447.4736-.5176 1.0967-.5176 1.8691v4.5107h-2.2998v-8.9521z" fill="#202124"/><path d="m741.6025 353.8047c-.7139-.4092-1.2725-.9736-1.6768-1.6934-.4033-.7197-.6055-1.5303-.6055-2.4307 0-.8545.1992-1.6475.5967-2.3789s.9482-1.3135 1.6504-1.7461 1.4854-.6494 2.3516-.6494c.9248 0 1.7207.1992 2.3877.5967s1.1729.9424 1.5176 1.6318c.3457.6914.5186 1.457.5186 2.2998 0 .2695-.0176.5264-.0527.7725h-6.7227c.1162.7139.4004 1.2549.8506 1.623.4512.3691.9922.5537 1.624.5537.5264 0 .9795-.1143 1.3604-.3428.3799-.2285.6816-.5352.9043-.9219l1.8604.9131c-.9131 1.5918-2.2998 2.3877-4.1602 2.3877-.8896 0-1.6914-.2051-2.4043-.6152zm4.5283-5.2305c-.0234-.2803-.126-.5586-.3076-.833-.1816-.2754-.4326-.5039-.7549-.6846-.3213-.1816-.6992-.2725-1.1318-.2725-.5498 0-1.0205.1611-1.4131.4824-.3916.3223-.6758.7578-.8506 1.3076h4.458z" fill="#202124"/><path d="m750.1152 345.1865h2.1592v1.1943h.1406c.2217-.4219.5674-.7725 1.0352-1.0537.4678-.2803.9834-.4209 1.5449-.4209.4092 0 .7842.0703 1.123.21v2.2822c-.3154-.1172-.582-.2021-.7979-.2549-.2168-.0518-.4482-.0781-.6934-.0781-.6787 0-1.2178.2461-1.6152.7383-.3975.4932-.5967 1.1143-.5967 1.8652v4.4697h-2.2998v-8.9521z" fill="#202124"/><path d="m758.874 353.8135c-.7139-.4033-1.2725-.9678-1.6768-1.6934-.4033-.7256-.6055-1.5449-.6055-2.457 0-.9131.2021-1.7295.6055-2.4492.4043-.7197.9629-1.2842 1.6768-1.6934.7129-.4092 1.5205-.6143 2.4219-.6143.9941 0 1.8486.2139 2.5625.6406s1.2285 1.0322 1.5449 1.8164l-2.1064.8779c-.375-.7959-1.042-1.1934-2.001-1.1934-.7021 0-1.2783.2393-1.7285.7188-.4512.4805-.6758 1.1123-.6758 1.8965 0 .7959.2246 1.4336.6758 1.9131.4502.4795 1.0264.7197 1.7285.7197.9717 0 1.6729-.4219 2.1064-1.2637l2.0889.9121c-.3867.7842-.9365 1.3926-1.6504 1.8262-.7139.4326-1.5615.6494-2.5449.6494-.9014 0-1.709-.2021-2.4219-.6064z" fill="#202124"/><path d="m767.3867 343.7646c-.293-.292-.4385-.6426-.4385-1.0527 0-.4092.1455-.7578.4385-1.0439.292-.2871.6436-.4307 1.0527-.4307.4102 0 .7578.1436 1.0449.4307.2861.2861.4297.6348.4297 1.0439 0 .4102-.1436.7607-.4297 1.0527-.2871.293-.6348.4395-1.0449.4395-.4092 0-.7607-.1465-1.0527-.4395zm-.1055 1.4219h2.2998v8.9521h-2.2998z" fill="#202124"/><path d="m773.6885 353.7969c-.7256-.416-1.29-.9834-1.6943-1.7031-.4033-.7197-.6055-1.5293-.6055-2.4307 0-.8896.2021-1.6973.6055-2.4229.4043-.7256.9688-1.2959 1.6943-1.7109.7246-.415 1.5498-.623 2.4746-.623.9131 0 1.7314.208 2.457.623s1.29.9854 1.6943 1.7109c.4033.7256.6055 1.5332.6055 2.4229 0 .9014-.2021 1.7109-.6055 2.4307-.4043.7197-.9688 1.2871-1.6943 1.7031-.7256.415-1.5439.623-2.457.623-.9248 0-1.75-.208-2.4746-.623zm3.7031-1.8174c.374-.21.6729-.5146.8955-.9121.2217-.3984.333-.8662.333-1.4043 0-.5273-.1113-.9893-.333-1.3867-.2227-.3975-.5215-.7021-.8955-.9131-.375-.2109-.7842-.3154-1.2285-.3154-.4453 0-.8545.1045-1.2285.3154-.375.2109-.6758.5156-.9043.9131s-.3418.8594-.3418 1.3867c0 .5264.1133.9912.3418 1.3955.2285.4033.5293.7109.9043.9209.374.2109.7832.3164 1.2285.3164.4443 0 .8535-.1055 1.2285-.3164z" fill="#202124"/><path d="m787.0986 341.5713h4.915c.7012 0 1.3477.1465 1.9395.4385.5908.293 1.0557.6904 1.3955 1.1934.3389.5039.5088 1.0537.5088 1.6504 0 .6318-.1553 1.1787-.4658 1.6406-.3096.4629-.7168.8164-1.2197 1.0625v.1406c.6553.2334 1.1768.6055 1.5625 1.1143s.5791 1.1201.5791 1.834c0 .6904-.1846 1.3018-.5527 1.834-.3691.5332-.8662.9424-1.4922 1.2295-.626.2861-1.3193.4297-2.0801.4297h-5.0898v-12.5674zm4.7393 5.125c.5146 0 .9268-.1436 1.2373-.4297.3096-.2871.4648-.6465.4648-1.0801 0-.4209-.1494-.7744-.4473-1.0615-.2988-.2871-.6934-.4297-1.1846-.4297h-2.4404v3.001h2.3701zm.2627 5.2832c.5732 0 1.0215-.1494 1.3428-.4473.3223-.2988.4834-.6875.4834-1.167 0-.4805-.1641-.8721-.4922-1.1768-.3271-.3037-.7959-.4561-1.4033-.4561h-2.5635v3.2471h2.6328z" fill="#202124"/><path d="m703.3203 450.085c-1.0068-.5791-1.7988-1.3691-2.3779-2.3701-.5801-1-.8691-2.1084-.8691-3.3262 0-1.2168.2891-2.3252.8691-3.3262.5791-1 1.3711-1.79 2.3779-2.3691 1.0059-.5791 2.1182-.8691 3.335-.8691 1.8955 0 3.4639.6846 4.7041 2.0537l-1.668 1.6152c-.8066-.9482-1.8135-1.4219-3.0186-1.4219-.7842 0-1.498.1787-2.1416.5352-.6436.3574-1.1494.8633-1.5186 1.5186-.3682.6553-.5527 1.4102-.5527 2.2637 0 .8545.1846 1.6094.5527 2.2646.3691.6553.875 1.1611 1.5186 1.5186.6436.3564 1.3574.5352 2.1416.5352 1.3223 0 2.4277-.5498 3.3174-1.6504l1.6855 1.5977c-.6211.749-1.3555 1.3193-2.2031 1.7109-.8486.3926-1.7881.5889-2.8174.5889-1.2168 0-2.3291-.29-3.335-.8691z" fill="#202124"/><path d="m715.0107 450.3311c-.7256-.416-1.29-.9834-1.6943-1.7031-.4033-.7197-.6055-1.5293-.6055-2.4307 0-.8896.2021-1.6973.6055-2.4229.4043-.7256.9688-1.2959 1.6943-1.7109.7246-.415 1.5498-.623 2.4746-.623.9131 0 1.7314.208 2.457.623s1.29.9854 1.6943 1.7109c.4033.7256.6055 1.5332.6055 2.4229 0 .9014-.2021 1.7109-.6055 2.4307-.4043.7197-.9688 1.2871-1.6943 1.7031-.7256.415-1.5439.623-2.457.623-.9248 0-1.75-.208-2.4746-.623zm3.7031-1.8174c.374-.21.6729-.5146.8955-.9121.2217-.3984.333-.8662.333-1.4043 0-.5273-.1113-.9893-.333-1.3867-.2227-.3975-.5215-.7021-.8955-.9131-.375-.2109-.7842-.3154-1.2285-.3154-.4453 0-.8545.1045-1.2285.3154-.375.2109-.6758.5156-.9043.9131s-.3418.8594-.3418 1.3867c0 .5264.1133.9912.3418 1.3955.2285.4033.5293.7109.9043.9209.374.2109.7832.3164 1.2285.3164.4443 0 .8535-.1055 1.2285-.3164z" fill="#202124"/><path d="m723.8213 441.7207h2.1592v1.124h.1406c.2803-.4336.6582-.7754 1.1318-1.0273.4746-.251 1.0039-.377 1.5889-.377.6318 0 1.1816.1494 1.6494.4473.4688.2988.8018.6758 1.001 1.1318.292-.4678.6934-.8477 1.2021-1.1406.5088-.292 1.1084-.4385 1.7988-.4385 1.0186 0 1.7939.3125 2.3262.9385.5322.627.7988 1.4717.7988 2.5371v5.7568h-2.2822v-5.3359c0-.5615-.1318-.9941-.3945-1.2988-.2637-.3047-.6289-.4561-1.0977-.4561-.5967 0-1.0732.2363-1.4297.7109-.3574.4736-.5361 1.0967-.5361 1.8691v4.5107h-2.2988v-5.3359c0-.5615-.1377-.9941-.4131-1.2988-.2744-.3047-.6641-.4561-1.167-.4561-.5615 0-1.0156.2363-1.3604.7109-.3447.4736-.5176 1.0967-.5176 1.8691v4.5107h-2.2998v-8.9521z" fill="#202124"/><path d="m741.6025 450.3389c-.7139-.4092-1.2725-.9736-1.6768-1.6934-.4033-.7197-.6055-1.5303-.6055-2.4307 0-.8545.1992-1.6475.5967-2.3789s.9482-1.3135 1.6504-1.7461 1.4854-.6494 2.3516-.6494c.9248 0 1.7207.1992 2.3877.5967s1.1729.9424 1.5176 1.6318c.3457.6914.5186 1.457.5186 2.2998 0 .2695-.0176.5264-.0527.7725h-6.7227c.1162.7139.4004 1.2549.8506 1.623.4512.3691.9922.5537 1.624.5537.5264 0 .9795-.1143 1.3604-.3428.3799-.2285.6816-.5352.9043-.9219l1.8604.9131c-.9131 1.5918-2.2998 2.3877-4.1602 2.3877-.8896 0-1.6914-.2051-2.4043-.6152zm4.5283-5.2305c-.0234-.2803-.126-.5586-.3076-.833-.1816-.2754-.4326-.5039-.7549-.6846-.3213-.1816-.6992-.2725-1.1318-.2725-.5498 0-1.0205.1611-1.4131.4824-.3916.3223-.6758.7578-.8506 1.3076h4.458z" fill="#202124"/><path d="m750.1152 441.7207h2.1592v1.1943h.1406c.2217-.4219.5674-.7725 1.0352-1.0537.4678-.2803.9834-.4209 1.5449-.4209.4092 0 .7842.0703 1.123.21v2.2822c-.3154-.1172-.582-.2021-.7979-.2549-.2168-.0518-.4482-.0781-.6934-.0781-.6787 0-1.2178.2461-1.6152.7383-.3975.4932-.5967 1.1143-.5967 1.8652v4.4697h-2.2998v-8.9521z" fill="#202124"/><path d="m758.874 450.3477c-.7139-.4033-1.2725-.9678-1.6768-1.6934-.4033-.7256-.6055-1.5449-.6055-2.457 0-.9131.2021-1.7295.6055-2.4492.4043-.7197.9629-1.2842 1.6768-1.6934.7129-.4092 1.5205-.6143 2.4219-.6143.9941 0 1.8486.2139 2.5625.6406s1.2285 1.0322 1.5449 1.8164l-2.1064.8779c-.375-.7959-1.042-1.1934-2.001-1.1934-.7021 0-1.2783.2393-1.7285.7188-.4512.4805-.6758 1.1123-.6758 1.8965 0 .7959.2246 1.4336.6758 1.9131.4502.4795 1.0264.7197 1.7285.7197.9717 0 1.6729-.4219 2.1064-1.2637l2.0889.9121c-.3867.7842-.9365 1.3926-1.6504 1.8262-.7139.4326-1.5615.6494-2.5449.6494-.9014 0-1.709-.2021-2.4219-.6064z" fill="#202124"/><path d="m767.3867 440.2988c-.293-.292-.4385-.6426-.4385-1.0527 0-.4092.1455-.7578.4385-1.0439.292-.2871.6436-.4307 1.0527-.4307.4102 0 .7578.1436 1.0449.4307.2861.2861.4297.6348.4297 1.0439 0 .4102-.1436.7607-.4297 1.0527-.2871.293-.6348.4395-1.0449.4395-.4092 0-.7607-.1465-1.0527-.4395zm-.1055 1.4219h2.2998v8.9521h-2.2998z" fill="#202124"/><path d="m773.6885 450.3311c-.7256-.416-1.29-.9834-1.6943-1.7031-.4033-.7197-.6055-1.5293-.6055-2.4307 0-.8896.2021-1.6973.6055-2.4229.4043-.7256.9688-1.2959 1.6943-1.7109.7246-.415 1.5498-.623 2.4746-.623.9131 0 1.7314.208 2.457.623s1.29.9854 1.6943 1.7109c.4033.7256.6055 1.5332.6055 2.4229 0 .9014-.2021 1.7109-.6055 2.4307-.4043.7197-.9688 1.2871-1.6943 1.7031-.7256.415-1.5439.623-2.457.623-.9248 0-1.75-.208-2.4746-.623zm3.7031-1.8174c.374-.21.6729-.5146.8955-.9121.2217-.3984.333-.8662.333-1.4043 0-.5273-.1113-.9893-.333-1.3867-.2227-.3975-.5215-.7021-.8955-.9131-.375-.2109-.7842-.3154-1.2285-.3154-.4453 0-.8545.1045-1.2285.3154-.375.2109-.6758.5156-.9043.9131s-.3418.8594-.3418 1.3867c0 .5264.1133.9912.3418 1.3955.2285.4033.5293.7109.9043.9209.374.2109.7832.3164 1.2285.3164.4443 0 .8535-.1055 1.2285-.3164z" fill="#202124"/><path d="m789.3623 450.085c-1.0068-.5791-1.7988-1.3691-2.3779-2.3701-.5801-1-.8691-2.1084-.8691-3.3262 0-1.2168.2891-2.3252.8691-3.3262.5791-1 1.3711-1.79 2.3779-2.3691 1.0059-.5791 2.1182-.8691 3.335-.8691 1.8955 0 3.4639.6846 4.7041 2.0537l-1.668 1.6152c-.8066-.9482-1.8135-1.4219-3.0186-1.4219-.7842 0-1.498.1787-2.1416.5352-.6436.3574-1.1494.8633-1.5186 1.5186-.3682.6553-.5527 1.4102-.5527 2.2637 0 .8545.1846 1.6094.5527 2.2646.3691.6553.875 1.1611 1.5186 1.5186.6436.3564 1.3574.5352 2.1416.5352 1.3223 0 2.4277-.5498 3.3174-1.6504l1.6855 1.5977c-.6211.749-1.3555 1.3193-2.2031 1.7109-.8486.3926-1.7881.5889-2.8174.5889-1.2168 0-2.3291-.29-3.335-.8691z" fill="#202124"/></svg>